{
	"asset":{
		"generator":"Khronos glTF Blender I/O v4.0.44",
		"version":"2.0"
	},
	"extensionsUsed":[
		"KHR_lights_punctual"
	],
	"extensionsRequired":[
		"KHR_lights_punctual"
	],
	"extensions":{
		"KHR_lights_punctual":{
			"lights":[
				{
					"color":[
						1,
						1,
						1
					],
					"intensity":54351.41306588226,
					"type":"point",
					"name":"Light.001"
				}
			]
		}
	},
	"scene":0,
	"scenes":[
		{
			"name":"Scene",
			"nodes":[
				0,
				1,
				2,
				3,
				4,
				5,
				6,
				7,
				8,
				9,
				10,
				11,
				12,
				13,
				14,
				15,
				16,
				17,
				18,
				19,
				20,
				21,
				22,
				23,
				24,
				25,
				26,
				27,
				28,
				29,
				30,
				31,
				32,
				33,
				34,
				35,
				36,
				37,
				38,
				39,
				40,
				41,
				42,
				43,
				44,
				45,
				46,
				47,
				48,
				49,
				50,
				51,
				52,
				53,
				54,
				55,
				56,
				57,
				58,
				59,
				60,
				61,
				62
			]
		}
	],
	"nodes":[
		{
			"mesh":0,
			"name":"fortification3.001",
			"rotation":[
				0.6429318785667419,
				-0.10485149919986725,
				0.16553474962711334,
				0.7404343485832214
			],
			"scale":[
				-0.34958481788635254,
				-1.0975632667541504,
				-0.3095610439777374
			],
			"translation":[
				3.4215285778045654,
				4.452496528625488,
				5.085062503814697
			]
		},
		{
			"mesh":1,
			"name":"fortification4.001",
			"rotation":[
				0.6189539432525635,
				-0.3419005870819092,
				0.2563985288143158,
				0.6589838862419128
			],
			"scale":[
				-0.3495848476886749,
				-1.0975631475448608,
				-0.3095611333847046
			],
			"translation":[
				-10.521944999694824,
				6.791828155517578,
				12.088794708251953
			]
		},
		{
			"mesh":2,
			"name":"fortification5.001",
			"rotation":[
				0.6169532537460327,
				0.23256124556064606,
				-0.1696459949016571,
				0.7324644923210144
			],
			"scale":[
				-0.34958478808403015,
				-1.0975631475448608,
				-0.3095610737800598
			],
			"translation":[
				9.02855110168457,
				3.883566379547119,
				-15.7750244140625
			]
		},
		{
			"camera":0,
			"name":"Camera",
			"rotation":[
				-0.20997299253940582,
				0.3857799470424652,
				0.09062845259904861,
				0.8937962055206299
			],
			"scale":[
				0.2800000011920929,
				0.2799999713897705,
				0.2799999713897705
			],
			"translation":[
				3.5098838806152344,
				6.541079044342041,
				-0.9143633842468262
			]
		},
		{
			"mesh":3,
			"name":"ground",
			"scale":[
				19.084205627441406,
				11.605379104614258,
				27.713603973388672
			],
			"translation":[
				1.4482905864715576,
				5.176629066467285,
				-2.853067636489868
			]
		},
		{
			"mesh":4,
			"name":"mountain1",
			"rotation":[
				0.48234257102012634,
				0,
				0,
				0.8759827017784119
			],
			"scale":[
				10.5,
				10.5,
				10.5
			],
			"translation":[
				-27.48944091796875,
				11.253739356994629,
				6.956051826477051
			]
		},
		{
			"mesh":5,
			"name":"mountain2",
			"rotation":[
				0,
				-0.8759827017784119,
				0.48234254121780396,
				1.4271570591972704e-07
			],
			"scale":[
				11.032868385314941,
				11.032868385314941,
				11.032868385314941
			],
			"translation":[
				-25.764284133911133,
				10.762980461120605,
				-11.81625747680664
			]
		},
		{
			"mesh":6,
			"name":"cave",
			"rotation":[
				0,
				0,
				-0.7071068286895752,
				0.7071068286895752
			],
			"scale":[
				11.199999809265137,
				11.199999809265137,
				11.199999809265137
			],
			"translation":[
				-21.072771072387695,
				5.15275239944458,
				-2.8535847663879395
			]
		},
		{
			"mesh":7,
			"name":"mountain3",
			"rotation":[
				0.023256845772266388,
				-0.0076321084052324295,
				-0.5531390309333801,
				0.8327294588088989
			],
			"scale":[
				9.6428804397583,
				8.844342231750488,
				8.403444290161133
			],
			"translation":[
				-18.435728073120117,
				8.542349815368652,
				-20.319114685058594
			]
		},
		{
			"mesh":8,
			"name":"mountain5",
			"rotation":[
				0.008754139766097069,
				-0.6274049282073975,
				-0.02277054265141487,
				0.7783109545707703
			],
			"scale":[
				8.399999618530273,
				8.400001525878906,
				8.40000057220459
			],
			"translation":[
				-29.439374923706055,
				16.986061096191406,
				-18.29555892944336
			]
		},
		{
			"mesh":9,
			"name":"mountain4",
			"rotation":[
				0.6274049282073975,
				0.008754139766097069,
				0.7783109545707703,
				0.02277054265141487
			],
			"scale":[
				-8.399999618530273,
				-8.400001525878906,
				-8.40000057220459
			],
			"translation":[
				-29.439374923706055,
				16.986061096191406,
				13.379172325134277
			]
		},
		{
			"mesh":10,
			"name":"mountain6",
			"rotation":[
				0.007632110267877579,
				0.023256847634911537,
				0.8327293395996094,
				0.5531389713287354
			],
			"scale":[
				-9.6428804397583,
				-8.844342231750488,
				-8.403444290161133
			],
			"translation":[
				-18.435728073120117,
				8.542349815368652,
				15.402722358703613
			]
		},
		{
			"mesh":11,
			"name":"mountain7",
			"rotation":[
				-0.7783109545707703,
				-0.02277054637670517,
				0.6274049282073975,
				0.00875413604080677
			],
			"scale":[
				-10.212023735046387,
				-8.403752326965332,
				-8.494647026062012
			],
			"translation":[
				31.048810958862305,
				16.986061096191406,
				-16.503732681274414
			]
		},
		{
			"mesh":12,
			"name":"mountain8",
			"rotation":[
				-0.8327295184135437,
				-0.5531389117240906,
				0.007632110733538866,
				0.023256845772266388
			],
			"scale":[
				-9.643291473388672,
				-8.84927749633789,
				-10.293180465698242
			],
			"translation":[
				20.045164108276367,
				8.542349815368652,
				-18.98332977294922
			]
		},
		{
			"mesh":13,
			"name":"mountain9",
			"rotation":[
				-0.8327295184135437,
				-0.5531389117240906,
				0.007632111664861441,
				0.023256845772266388
			],
			"scale":[
				-9.642756462097168,
				-8.842839241027832,
				-6.922708988189697
			],
			"translation":[
				20.045164108276367,
				8.542349815368652,
				-2.4321212768554688
			]
		},
		{
			"mesh":14,
			"name":"mountain10",
			"rotation":[
				-0.7783109545707703,
				-0.02277054637670517,
				0.6274048686027527,
				0.008754136972129345
			],
			"scale":[
				-7.01835823059082,
				-8.398858070373535,
				-8.369142532348633
			],
			"translation":[
				31.048810958862305,
				16.986061096191406,
				-0.7664220333099365
			]
		},
		{
			"mesh":15,
			"name":"mountain11",
			"rotation":[
				-0.8327295184135437,
				-0.5531389117240906,
				0.007632110733538866,
				0.023256845772266388
			],
			"scale":[
				-9.643291473388672,
				-8.84927749633789,
				-10.293180465698242
			],
			"translation":[
				20.045164108276367,
				8.542349815368652,
				14.16989803314209
			]
		},
		{
			"mesh":16,
			"name":"mountain12",
			"rotation":[
				-0.7783109545707703,
				-0.02277054637670517,
				0.6274049282073975,
				0.00875413604080677
			],
			"scale":[
				-10.212023735046387,
				-8.403752326965332,
				-8.494647026062012
			],
			"translation":[
				31.048810958862305,
				16.986061096191406,
				16.649494171142578
			]
		},
		{
			"mesh":17,
			"name":"stone_wall1",
			"rotation":[
				0.521226167678833,
				-0.3003726899623871,
				0.2026204913854599,
				0.7726866602897644
			],
			"scale":[
				6.3946051597595215,
				7.706076145172119,
				7.706076622009277
			],
			"translation":[
				20.234424591064453,
				5.70644474029541,
				-29.41606903076172
			]
		},
		{
			"mesh":18,
			"name":"long_logs",
			"rotation":[
				0.9816564321517944,
				-0.085067979991436,
				0.038097940385341644,
				0.16632169485092163
			],
			"scale":[
				-0.8257061243057251,
				-6.091094493865967,
				-0.7360262274742126
			],
			"translation":[
				20.610668182373047,
				6.050050735473633,
				-29.38644027709961
			]
		},
		{
			"mesh":19,
			"name":"stone_grate",
			"rotation":[
				0.7071068286895752,
				0,
				0,
				0.7071068286895752
			],
			"scale":[
				6.758352756500244,
				1.394325852394104,
				6.758352756500244
			],
			"translation":[
				1.4493942260742188,
				5.15275239944458,
				-30.85358428955078
			]
		},
		{
			"mesh":20,
			"name":"cave2",
			"rotation":[
				0.5,
				-0.5,
				-0.5,
				0.5000000596046448
			],
			"scale":[
				11.199999809265137,
				11.199999809265137,
				11.199999809265137
			],
			"translation":[
				1.681281566619873,
				3.1304712295532227,
				-34.65109634399414
			]
		},
		{
			"mesh":21,
			"name":"stone_wall2",
			"rotation":[
				0.20262038707733154,
				0.7726865410804749,
				-0.5212262272834778,
				0.3003726005554199
			],
			"scale":[
				6.3946075439453125,
				7.706076622009277,
				7.706076622009277
			],
			"translation":[
				-16.064559936523438,
				5.70644474029541,
				23.548038482666016
			]
		},
		{
			"mesh":22,
			"name":"long_logs2",
			"rotation":[
				-0.08506800979375839,
				-0.9816563129425049,
				-0.16632165014743805,
				0.03809808939695358
			],
			"scale":[
				0.8257060647010803,
				6.091094017028809,
				0.7360262274742126
			],
			"translation":[
				21.020771026611328,
				7.110952377319336,
				24.222545623779297
			]
		},
		{
			"mesh":23,
			"name":"stone_rim2",
			"rotation":[
				0,
				-0.08081848919391632,
				0,
				0.9967288374900818
			],
			"scale":[
				1.058168649673462,
				1.2038383483886719,
				1.058168649673462
			],
			"translation":[
				0.2551835775375366,
				15.460214614868164,
				-32.5623893737793
			]
		},
		{
			"mesh":24,
			"name":"short_logs2",
			"rotation":[
				0,
				-0.08081848919391632,
				0,
				0.9967288374900818
			],
			"scale":[
				1.058168649673462,
				1.2038383483886719,
				1.058168649673462
			],
			"translation":[
				0.2551835775375366,
				15.460214614868164,
				-32.5623893737793
			]
		},
		{
			"mesh":25,
			"name":"stone_rim",
			"rotation":[
				0,
				0.9967288374900818,
				0,
				0.08081847429275513
			],
			"scale":[
				1.058168649673462,
				1.2038383483886719,
				1.058168649673462
			],
			"translation":[
				0.2551835775375366,
				15.460214614868164,
				26.23760986328125
			]
		},
		{
			"mesh":26,
			"name":"short_logs",
			"rotation":[
				0,
				0.9967288374900818,
				0,
				0.08081847429275513
			],
			"scale":[
				1.058168649673462,
				1.2038383483886719,
				1.058168649673462
			],
			"translation":[
				0.2551835775375366,
				15.460214614868164,
				26.23760986328125
			]
		},
		{
			"mesh":27,
			"name":"fortification1",
			"rotation":[
				0.6067637801170349,
				0.36309465765953064,
				-0.36309465765953064,
				0.6067637801170349
			],
			"scale":[
				-0.34958481788635254,
				-1.0975631475448608,
				-0.3095610439777374
			],
			"translation":[
				-1.8895940780639648,
				3.808624029159546,
				-20.761184692382812
			]
		},
		{
			"mesh":28,
			"name":"fortification2",
			"rotation":[
				0.6971864700317383,
				0.24367664754390717,
				-0.09492095559835434,
				0.6674899458885193
			],
			"scale":[
				-0.34958478808403015,
				-1.0975630283355713,
				-0.30956101417541504
			],
			"translation":[
				-7.189223766326904,
				3.731555461883545,
				-10.856210708618164
			]
		},
		{
			"mesh":29,
			"name":"fortification3",
			"rotation":[
				0.699788510799408,
				0.16247904300689697,
				-0.03762097284197807,
				0.6946088075637817
			],
			"scale":[
				-0.34958481788635254,
				-1.0975632667541504,
				-0.3095610439777374
			],
			"translation":[
				6.236886501312256,
				2.805945634841919,
				-5.664009094238281
			]
		},
		{
			"mesh":30,
			"name":"fortification4",
			"rotation":[
				0.6189539432525635,
				-0.3419005870819092,
				0.2563985288143158,
				0.6589838862419128
			],
			"scale":[
				-0.3495848476886749,
				-1.0975631475448608,
				-0.3095611333847046
			],
			"translation":[
				-8.133890151977539,
				6.641138076782227,
				10.275646209716797
			]
		},
		{
			"mesh":31,
			"name":"fortification5",
			"rotation":[
				0.6493792533874512,
				0.2553951144218445,
				-0.20181313157081604,
				0.6872782707214355
			],
			"scale":[
				-0.3495848476886749,
				-1.0975630283355713,
				-0.3095610737800598
			],
			"translation":[
				7.2705607414245605,
				3.506269931793213,
				-18.38947296142578
			]
		},
		{
			"mesh":32,
			"name":"fortification6",
			"rotation":[
				0.6895661950111389,
				-0.19223077595233917,
				0.21288008987903595,
				0.665002167224884
			],
			"scale":[
				-0.34958478808403015,
				-1.0975630283355713,
				-0.30956101417541504
			],
			"translation":[
				12.613689422607422,
				4.416656494140625,
				13.617777824401855
			]
		},
		{
			"mesh":33,
			"name":"fortification7",
			"rotation":[
				0.6230992674827576,
				-0.19479627907276154,
				0.31641462445259094,
				0.6882466673851013
			],
			"scale":[
				-0.34958478808403015,
				-1.0975631475448608,
				-0.30956101417541504
			],
			"translation":[
				1.9882640838623047,
				4.593090057373047,
				7.588722229003906
			]
		},
		{
			"mesh":34,
			"name":"fortification8",
			"rotation":[
				0.7192384600639343,
				0.011844592168927193,
				0.03002980165183544,
				0.6940129399299622
			],
			"scale":[
				-0.34958481788635254,
				-1.0975631475448608,
				-0.3095611035823822
			],
			"translation":[
				13.83515739440918,
				5.240898132324219,
				-8.984964370727539
			]
		},
		{
			"mesh":35,
			"name":"fortification9",
			"rotation":[
				0.6594908237457275,
				0.2346331626176834,
				-0.06320097297430038,
				0.7113542556762695
			],
			"scale":[
				-0.34958478808403015,
				-1.0975630283355713,
				-0.3095610737800598
			],
			"translation":[
				-5.818016052246094,
				3.8340232372283936,
				-7.915438652038574
			]
		},
		{
			"mesh":36,
			"name":"rocks3",
			"rotation":[
				-0.7036597728729248,
				0.09883145987987518,
				-0.6648991703987122,
				0.2302267849445343
			],
			"scale":[
				-2.2560014724731445,
				-2.2560012340545654,
				-2.2560014724731445
			],
			"translation":[
				19.374597549438477,
				6.566672325134277,
				15.32816219329834
			]
		},
		{
			"mesh":37,
			"name":"rocks6",
			"rotation":[
				-0.9433411359786987,
				0.15608446300029755,
				-0.14472320675849915,
				0.25455912947654724
			],
			"scale":[
				-2.2560012340545654,
				-2.2560014724731445,
				-2.2560014724731445
			],
			"translation":[
				17.34557342529297,
				6.502284049987793,
				-14.040698051452637
			]
		},
		{
			"mesh":38,
			"name":"rocks8",
			"rotation":[
				-0.5551000237464905,
				-0.06269712001085281,
				0.8023916482925415,
				0.21000148355960846
			],
			"scale":[
				-2.822399377822876,
				-2.822399854660034,
				-2.822399616241455
			],
			"translation":[
				-13.611992835998535,
				4.874912738800049,
				-11.451483726501465
			]
		},
		{
			"mesh":39,
			"name":"rocks9",
			"rotation":[
				-0.07015472650527954,
				0.2845636308193207,
				-0.31235459446907043,
				0.9036240577697754
			],
			"scale":[
				2.4191999435424805,
				2.4192004203796387,
				2.4192001819610596
			],
			"translation":[
				-14.95226001739502,
				8.92327880859375,
				3.6432957649230957
			]
		},
		{
			"mesh":40,
			"name":"rocks10",
			"rotation":[
				-0.9740310311317444,
				-0.1949353963136673,
				0.08331470191478729,
				0.07951505482196808
			],
			"scale":[
				-2.0159997940063477,
				-2.0160000324249268,
				-2.016000270843506
			],
			"translation":[
				6.713837623596191,
				5.140041351318359,
				-28.524917602539062
			]
		},
		{
			"mesh":41,
			"name":"rocks11",
			"rotation":[
				-0.8796765804290771,
				-0.06273519992828369,
				-0.46114665269851685,
				0.09786297380924225
			],
			"scale":[
				-3.3600003719329834,
				-3.3600003719329834,
				-3.3600001335144043
			],
			"translation":[
				-4.112420082092285,
				3.943540334701538,
				6.269413948059082
			]
		},
		{
			"mesh":42,
			"name":"rocks12",
			"rotation":[
				-0.8796765804290771,
				-0.06273519992828369,
				-0.46114665269851685,
				0.09786297380924225
			],
			"scale":[
				-3.3600003719329834,
				-3.3600003719329834,
				-3.3600001335144043
			],
			"translation":[
				-2.2037220001220703,
				2.0900187492370605,
				-15.95695686340332
			]
		},
		{
			"mesh":43,
			"name":"rocks13",
			"rotation":[
				-0.8796765804290771,
				-0.06273519992828369,
				-0.46114665269851685,
				0.09786297380924225
			],
			"scale":[
				-3.3600003719329834,
				-3.3600003719329834,
				-3.3600001335144043
			],
			"translation":[
				18.70182991027832,
				2.677428722381592,
				3.0703892707824707
			]
		},
		{
			"mesh":44,
			"name":"rocks14",
			"rotation":[
				-0.8796765804290771,
				-0.06273519992828369,
				-0.46114665269851685,
				0.09786297380924225
			],
			"scale":[
				-3.3600003719329834,
				-3.3600003719329834,
				-3.3600001335144043
			],
			"translation":[
				8.942071914672852,
				1.924994945526123,
				18.272605895996094
			]
		},
		{
			"mesh":45,
			"name":"rocks15",
			"rotation":[
				-0.08788792788982391,
				0.11445264518260956,
				0.9893244504928589,
				0.020333578810095787
			],
			"scale":[
				-3.3600003719329834,
				-3.3600003719329834,
				-3.3600003719329834
			],
			"translation":[
				10.216629028320312,
				2.156886100769043,
				7.993383407592773
			]
		},
		{
			"mesh":46,
			"name":"rocks16",
			"rotation":[
				-0.08788792788982391,
				0.11445264518260956,
				0.9893244504928589,
				0.020333578810095787
			],
			"scale":[
				-3.3600003719329834,
				-3.3600003719329834,
				-3.3600003719329834
			],
			"translation":[
				4.195111274719238,
				1.0828919410705566,
				-9.549596786499023
			]
		},
		{
			"mesh":47,
			"name":"rocks17",
			"rotation":[
				-0.7185839414596558,
				-0.08726911246776581,
				-0.6856561303138733,
				0.0767916887998581
			],
			"scale":[
				-3.3600006103515625,
				-3.3600003719329834,
				-3.3600001335144043
			],
			"translation":[
				7.170770168304443,
				0.7634320259094238,
				-27.805526733398438
			]
		},
		{
			"mesh":48,
			"name":"rocks1",
			"rotation":[
				-0.08788792788982391,
				0.11445264518260956,
				0.9893244504928589,
				0.020333578810095787
			],
			"scale":[
				-3.3600003719329834,
				-3.3600003719329834,
				-3.3600003719329834
			],
			"translation":[
				-2.583683967590332,
				5.677870750427246,
				20.002017974853516
			]
		},
		{
			"mesh":49,
			"name":"rocks2",
			"rotation":[
				-0.8796765804290771,
				-0.06273519992828369,
				-0.46114665269851685,
				0.09786297380924225
			],
			"scale":[
				-3.3600003719329834,
				-3.3600003719329834,
				-3.3600001335144043
			],
			"translation":[
				-12.636844635009766,
				4.892378807067871,
				17.514713287353516
			]
		},
		{
			"mesh":50,
			"name":"rocks4",
			"rotation":[
				-0.3735947012901306,
				-0.11110740900039673,
				-0.9202793836593628,
				0.034176185727119446
			],
			"scale":[
				-3.360184907913208,
				-3.76727032661438,
				-3.384058952331543
			],
			"translation":[
				16.414024353027344,
				4.368703842163086,
				-0.2759976387023926
			]
		},
		{
			"mesh":51,
			"name":"rocks5",
			"rotation":[
				-0.8796765804290771,
				-0.06273519992828369,
				-0.46114665269851685,
				0.09786297380924225
			],
			"scale":[
				-3.3600730895996094,
				-3.526571750640869,
				-3.36952805519104
			],
			"translation":[
				-5.034729957580566,
				1.4047670364379883,
				-3.9928035736083984
			]
		},
		{
			"mesh":52,
			"name":"rocks7",
			"rotation":[
				-0.8796765804290771,
				-0.06273519992828369,
				-0.46114665269851685,
				0.09786297380924225
			],
			"scale":[
				-3.3600730895996094,
				-3.526571750640869,
				-3.36952805519104
			],
			"translation":[
				-9.482011795043945,
				1.1751289367675781,
				-25.438079833984375
			]
		},
		{
			"extensions":{
				"KHR_lights_punctual":{
					"light":0
				}
			},
			"name":"Light",
			"rotation":[
				-0.04091878607869148,
				-0.8840374946594238,
				-0.4427904188632965,
				0.14401455223560333
			],
			"scale":[
				0.699999988079071,
				0.699999988079071,
				0.699999988079071
			],
			"translation":[
				-1.5886926651000977,
				14.79183578491211,
				-7.424043655395508
			]
		},
		{
			"mesh":53,
			"name":"Fur",
			"rotation":[
				0,
				0.70710688829422,
				0,
				0.7071066498756409
			]
		},
		{
			"mesh":54,
			"name":"Body",
			"rotation":[
				0,
				0.70710688829422,
				0,
				0.7071066498756409
			]
		},
		{
			"mesh":55,
			"name":"hair",
			"rotation":[
				0,
				-0.7071068286895752,
				0,
				0.7071068286895752
			]
		},
		{
			"mesh":56,
			"name":"clothes",
			"rotation":[
				0,
				-0.7071068286895752,
				0,
				0.7071068286895752
			]
		},
		{
			"mesh":57,
			"name":"cloak",
			"rotation":[
				0,
				-0.7071068286895752,
				0,
				0.7071068286895752
			],
			"scale":[
				1.0115230083465576,
				1.0115230083465576,
				1.0115230083465576
			]
		},
		{
			"mesh":58,
			"name":"body",
			"rotation":[
				0,
				-0.7071068286895752,
				0,
				0.7071068286895752
			]
		},
		{
			"mesh":59,
			"name":"Fur.001",
			"rotation":[
				0,
				0.70710688829422,
				0,
				0.7071066498756409
			]
		},
		{
			"mesh":60,
			"name":"Body.001",
			"rotation":[
				0,
				0.70710688829422,
				0,
				0.7071066498756409
			]
		}
	],
	"cameras":[
		{
			"name":"Camera",
			"perspective":{
				"aspectRatio":1.7777777777777777,
				"yfov":0.39959648408210363,
				"zfar":100,
				"znear":0.10000000149011612
			},
			"type":"perspective"
		}
	],
	"materials":[
		{
			"doubleSided":true,
			"name":"snowy_wood_material.001",
			"pbrMetallicRoughness":{}
		},
		{
			"doubleSided":true,
			"name":"snowy_wood_material.002",
			"pbrMetallicRoughness":{}
		},
		{
			"doubleSided":true,
			"name":"snowy_wood_material.003",
			"pbrMetallicRoughness":{}
		},
		{
			"doubleSided":true,
			"name":"floor_material",
			"pbrMetallicRoughness":{}
		},
		{
			"doubleSided":true,
			"name":"mountain_material_top",
			"pbrMetallicRoughness":{}
		},
		{
			"doubleSided":true,
			"name":"cave_material",
			"pbrMetallicRoughness":{}
		},
		{
			"doubleSided":true,
			"name":"mountain_material_side",
			"pbrMetallicRoughness":{}
		},
		{
			"doubleSided":true,
			"name":"stone_material_wall",
			"pbrMetallicRoughness":{}
		},
		{
			"doubleSided":true,
			"name":"wood_material",
			"pbrMetallicRoughness":{}
		},
		{
			"doubleSided":true,
			"name":"stone_material",
			"pbrMetallicRoughness":{}
		},
		{
			"doubleSided":true,
			"name":"snowy_wood_material",
			"pbrMetallicRoughness":{}
		},
		{
			"doubleSided":true,
			"name":"rock_material",
			"pbrMetallicRoughness":{}
		}
	],
	"meshes":[
		{
			"name":"Cylinder.002",
			"primitives":[
				{
					"attributes":{
						"POSITION":0,
						"NORMAL":1,
						"TEXCOORD_0":2
					},
					"indices":3,
					"material":0
				}
			]
		},
		{
			"name":"Cylinder.003",
			"primitives":[
				{
					"attributes":{
						"POSITION":4,
						"NORMAL":5,
						"TEXCOORD_0":6
					},
					"indices":7,
					"material":1
				}
			]
		},
		{
			"name":"Cylinder.004",
			"primitives":[
				{
					"attributes":{
						"POSITION":8,
						"NORMAL":9,
						"TEXCOORD_0":10
					},
					"indices":7,
					"material":2
				}
			]
		},
		{
			"name":"Plane",
			"primitives":[
				{
					"attributes":{
						"POSITION":11,
						"NORMAL":12,
						"TEXCOORD_0":13,
						"TANGENT":14
					},
					"indices":15,
					"material":3
				}
			]
		},
		{
			"name":"Plane.001",
			"primitives":[
				{
					"attributes":{
						"POSITION":16,
						"NORMAL":17,
						"TEXCOORD_0":18,
						"TANGENT":19
					},
					"indices":20,
					"material":4
				}
			]
		},
		{
			"name":"Plane.003",
			"primitives":[
				{
					"attributes":{
						"POSITION":21,
						"NORMAL":22,
						"TEXCOORD_0":23,
						"TANGENT":24
					},
					"indices":25,
					"material":4
				}
			]
		},
		{
			"name":"Plane.004",
			"primitives":[
				{
					"attributes":{
						"POSITION":26,
						"NORMAL":27,
						"TEXCOORD_0":28,
						"TANGENT":29
					},
					"indices":30,
					"material":5
				}
			]
		},
		{
			"name":"Plane.002",
			"primitives":[
				{
					"attributes":{
						"POSITION":31,
						"NORMAL":32,
						"TEXCOORD_0":33,
						"TANGENT":34
					},
					"indices":35,
					"material":6
				}
			]
		},
		{
			"name":"Plane.006",
			"primitives":[
				{
					"attributes":{
						"POSITION":36,
						"NORMAL":37,
						"TEXCOORD_0":38,
						"TANGENT":39
					},
					"indices":40,
					"material":4
				}
			]
		},
		{
			"name":"Plane.009",
			"primitives":[
				{
					"attributes":{
						"POSITION":41,
						"NORMAL":42,
						"TEXCOORD_0":43,
						"TANGENT":44
					},
					"indices":45,
					"material":4
				}
			]
		},
		{
			"name":"Plane.010",
			"primitives":[
				{
					"attributes":{
						"POSITION":46,
						"NORMAL":47,
						"TEXCOORD_0":48,
						"TANGENT":49
					},
					"indices":35,
					"material":6
				}
			]
		},
		{
			"name":"Plane.011",
			"primitives":[
				{
					"attributes":{
						"POSITION":50,
						"NORMAL":51,
						"TEXCOORD_0":52,
						"TANGENT":53
					},
					"indices":54,
					"material":4
				}
			]
		},
		{
			"name":"Plane.012",
			"primitives":[
				{
					"attributes":{
						"POSITION":55,
						"NORMAL":56,
						"TEXCOORD_0":57,
						"TANGENT":58
					},
					"indices":35,
					"material":6
				}
			]
		},
		{
			"name":"Plane.013",
			"primitives":[
				{
					"attributes":{
						"POSITION":59,
						"NORMAL":60,
						"TEXCOORD_0":61,
						"TANGENT":62
					},
					"indices":63,
					"material":6
				}
			]
		},
		{
			"name":"Plane.014",
			"primitives":[
				{
					"attributes":{
						"POSITION":64,
						"NORMAL":65,
						"TEXCOORD_0":66,
						"TANGENT":67
					},
					"indices":54,
					"material":4
				}
			]
		},
		{
			"name":"Plane.015",
			"primitives":[
				{
					"attributes":{
						"POSITION":68,
						"NORMAL":69,
						"TEXCOORD_0":70,
						"TANGENT":71
					},
					"indices":72,
					"material":6
				}
			]
		},
		{
			"name":"Plane.016",
			"primitives":[
				{
					"attributes":{
						"POSITION":73,
						"NORMAL":74,
						"TEXCOORD_0":75,
						"TANGENT":76
					},
					"indices":54,
					"material":4
				}
			]
		},
		{
			"name":"Plane.018",
			"primitives":[
				{
					"attributes":{
						"POSITION":77,
						"NORMAL":78,
						"TEXCOORD_0":79
					},
					"indices":80,
					"material":7
				}
			]
		},
		{
			"name":"Cylinder.016",
			"primitives":[
				{
					"attributes":{
						"POSITION":81,
						"NORMAL":82,
						"TEXCOORD_0":83
					},
					"indices":84,
					"material":8
				}
			]
		},
		{
			"name":"Cylinder.040",
			"primitives":[
				{
					"attributes":{
						"POSITION":85,
						"NORMAL":86,
						"TEXCOORD_0":87
					},
					"indices":88,
					"material":9
				}
			]
		},
		{
			"name":"Plane.020",
			"primitives":[
				{
					"attributes":{
						"POSITION":89,
						"NORMAL":90,
						"TEXCOORD_0":91,
						"TANGENT":92
					},
					"indices":30,
					"material":5
				}
			]
		},
		{
			"name":"Plane.021",
			"primitives":[
				{
					"attributes":{
						"POSITION":93,
						"NORMAL":94,
						"TEXCOORD_0":95
					},
					"indices":96,
					"material":7
				}
			]
		},
		{
			"name":"Cylinder.044",
			"primitives":[
				{
					"attributes":{
						"POSITION":97,
						"NORMAL":98,
						"TEXCOORD_0":99
					},
					"indices":100,
					"material":8
				}
			]
		},
		{
			"name":"Cylinder.017",
			"primitives":[
				{
					"attributes":{
						"POSITION":101,
						"NORMAL":102,
						"TEXCOORD_0":103
					},
					"indices":104,
					"material":9
				}
			]
		},
		{
			"name":"Cylinder.035",
			"primitives":[
				{
					"attributes":{
						"POSITION":105,
						"NORMAL":106,
						"TEXCOORD_0":107
					},
					"indices":108,
					"material":8
				}
			]
		},
		{
			"name":"Cylinder.038",
			"primitives":[
				{
					"attributes":{
						"POSITION":109,
						"NORMAL":110,
						"TEXCOORD_0":111
					},
					"indices":104,
					"material":9
				}
			]
		},
		{
			"name":"Cylinder.074",
			"primitives":[
				{
					"attributes":{
						"POSITION":112,
						"NORMAL":113,
						"TEXCOORD_0":114
					},
					"indices":115,
					"material":8
				}
			]
		},
		{
			"name":"Cylinder.010",
			"primitives":[
				{
					"attributes":{
						"POSITION":116,
						"NORMAL":117,
						"TEXCOORD_0":118
					},
					"indices":7,
					"material":10
				}
			]
		},
		{
			"name":"Cylinder.011",
			"primitives":[
				{
					"attributes":{
						"POSITION":119,
						"NORMAL":120,
						"TEXCOORD_0":121
					},
					"indices":7,
					"material":10
				}
			]
		},
		{
			"name":"Cylinder.012",
			"primitives":[
				{
					"attributes":{
						"POSITION":122,
						"NORMAL":123,
						"TEXCOORD_0":124
					},
					"indices":3,
					"material":10
				}
			]
		},
		{
			"name":"Cylinder.013",
			"primitives":[
				{
					"attributes":{
						"POSITION":125,
						"NORMAL":126,
						"TEXCOORD_0":127
					},
					"indices":7,
					"material":10
				}
			]
		},
		{
			"name":"Cylinder.014",
			"primitives":[
				{
					"attributes":{
						"POSITION":128,
						"NORMAL":129,
						"TEXCOORD_0":130
					},
					"indices":7,
					"material":10
				}
			]
		},
		{
			"name":"Cylinder.015",
			"primitives":[
				{
					"attributes":{
						"POSITION":131,
						"NORMAL":132,
						"TEXCOORD_0":133
					},
					"indices":7,
					"material":10
				}
			]
		},
		{
			"name":"Cylinder.018",
			"primitives":[
				{
					"attributes":{
						"POSITION":134,
						"NORMAL":135,
						"TEXCOORD_0":136
					},
					"indices":7,
					"material":10
				}
			]
		},
		{
			"name":"Cylinder.019",
			"primitives":[
				{
					"attributes":{
						"POSITION":137,
						"NORMAL":138,
						"TEXCOORD_0":139
					},
					"indices":7,
					"material":10
				}
			]
		},
		{
			"name":"Cylinder.001",
			"primitives":[
				{
					"attributes":{
						"POSITION":140,
						"NORMAL":141,
						"TEXCOORD_0":142
					},
					"indices":7,
					"material":10
				}
			]
		},
		{
			"name":"Cube.003",
			"primitives":[
				{
					"attributes":{
						"POSITION":143,
						"NORMAL":144,
						"TEXCOORD_0":145
					},
					"indices":146,
					"material":11
				}
			]
		},
		{
			"name":"Cube.006",
			"primitives":[
				{
					"attributes":{
						"POSITION":147,
						"NORMAL":148,
						"TEXCOORD_0":149
					},
					"indices":150,
					"material":11
				}
			]
		},
		{
			"name":"Cube.010",
			"primitives":[
				{
					"attributes":{
						"POSITION":151,
						"NORMAL":152,
						"TEXCOORD_0":153
					},
					"indices":154,
					"material":11
				}
			]
		},
		{
			"name":"Cube.013",
			"primitives":[
				{
					"attributes":{
						"POSITION":155,
						"NORMAL":156,
						"TEXCOORD_0":157
					},
					"indices":158,
					"material":11
				}
			]
		},
		{
			"name":"Cube.016",
			"primitives":[
				{
					"attributes":{
						"POSITION":159,
						"NORMAL":160,
						"TEXCOORD_0":161
					},
					"indices":158,
					"material":11
				}
			]
		},
		{
			"name":"Cube.018",
			"primitives":[
				{
					"attributes":{
						"POSITION":162,
						"NORMAL":163,
						"TEXCOORD_0":164
					},
					"indices":165,
					"material":11
				}
			]
		},
		{
			"name":"Cube.019",
			"primitives":[
				{
					"attributes":{
						"POSITION":166,
						"NORMAL":167,
						"TEXCOORD_0":168
					},
					"indices":165,
					"material":11
				}
			]
		},
		{
			"name":"Cube.020",
			"primitives":[
				{
					"attributes":{
						"POSITION":169,
						"NORMAL":170,
						"TEXCOORD_0":171
					},
					"indices":165,
					"material":11
				}
			]
		},
		{
			"name":"Cube.021",
			"primitives":[
				{
					"attributes":{
						"POSITION":172,
						"NORMAL":173,
						"TEXCOORD_0":174
					},
					"indices":165,
					"material":11
				}
			]
		},
		{
			"name":"Cube.024",
			"primitives":[
				{
					"attributes":{
						"POSITION":175,
						"NORMAL":176,
						"TEXCOORD_0":177
					},
					"indices":178,
					"material":11
				}
			]
		},
		{
			"name":"Cube.025",
			"primitives":[
				{
					"attributes":{
						"POSITION":179,
						"NORMAL":180,
						"TEXCOORD_0":181
					},
					"indices":182,
					"material":11
				}
			]
		},
		{
			"name":"Cube.029",
			"primitives":[
				{
					"attributes":{
						"POSITION":183,
						"NORMAL":184,
						"TEXCOORD_0":185
					},
					"indices":186,
					"material":11
				}
			]
		},
		{
			"name":"Cube.001",
			"primitives":[
				{
					"attributes":{
						"POSITION":187,
						"NORMAL":188,
						"TEXCOORD_0":189
					},
					"indices":178,
					"material":11
				}
			]
		},
		{
			"name":"Cube.002",
			"primitives":[
				{
					"attributes":{
						"POSITION":190,
						"NORMAL":191,
						"TEXCOORD_0":192
					},
					"indices":165,
					"material":11
				}
			]
		},
		{
			"name":"Cube.004",
			"primitives":[
				{
					"attributes":{
						"POSITION":193,
						"NORMAL":194,
						"TEXCOORD_0":195
					},
					"indices":165,
					"material":11
				}
			]
		},
		{
			"name":"Cube.005",
			"primitives":[
				{
					"attributes":{
						"POSITION":196,
						"NORMAL":197,
						"TEXCOORD_0":198
					},
					"indices":165,
					"material":11
				}
			]
		},
		{
			"name":"Cube.007",
			"primitives":[
				{
					"attributes":{
						"POSITION":199,
						"NORMAL":200,
						"TEXCOORD_0":201
					},
					"indices":165,
					"material":11
				}
			]
		},
		{
			"name":"Cube.008",
			"primitives":[
				{
					"attributes":{
						"POSITION":202,
						"NORMAL":203,
						"TEXCOORD_0":204
					},
					"indices":205
				}
			]
		},
		{
			"name":"Cube.009",
			"primitives":[
				{
					"attributes":{
						"POSITION":206,
						"NORMAL":207,
						"TEXCOORD_0":208
					},
					"indices":209
				}
			]
		},
		{
			"name":"Cube.011",
			"primitives":[
				{
					"attributes":{
						"POSITION":210,
						"NORMAL":211,
						"TEXCOORD_0":212
					},
					"indices":213
				}
			]
		},
		{
			"name":"Cube.012",
			"primitives":[
				{
					"attributes":{
						"POSITION":214,
						"NORMAL":215,
						"TEXCOORD_0":216,
						"TANGENT":217
					},
					"indices":218
				}
			]
		},
		{
			"name":"Cube.014",
			"primitives":[
				{
					"attributes":{
						"POSITION":219,
						"NORMAL":220,
						"TEXCOORD_0":221
					},
					"indices":222
				}
			]
		},
		{
			"name":"Cube.015",
			"primitives":[
				{
					"attributes":{
						"POSITION":223,
						"NORMAL":224,
						"TEXCOORD_0":225
					},
					"indices":226
				}
			]
		},
		{
			"name":"Cube.017",
			"primitives":[
				{
					"attributes":{
						"POSITION":227,
						"NORMAL":228,
						"TEXCOORD_0":229
					},
					"indices":205
				}
			]
		},
		{
			"name":"Cube.022",
			"primitives":[
				{
					"attributes":{
						"POSITION":230,
						"NORMAL":231,
						"TEXCOORD_0":232
					},
					"indices":233
				}
			]
		}
	],
	"accessors":[
		{
			"bufferView":0,
			"componentType":5126,
			"count":744,
			"max":[
				2.5429985523223877,
				1.3840622901916504,
				9.880146026611328
			],
			"min":[
				-3.874838352203369,
				-1.4066412448883057,
				-1.0691099166870117
			],
			"type":"VEC3"
		},
		{
			"bufferView":1,
			"componentType":5126,
			"count":744,
			"type":"VEC3"
		},
		{
			"bufferView":2,
			"componentType":5126,
			"count":744,
			"type":"VEC2"
		},
		{
			"bufferView":3,
			"componentType":5123,
			"count":1284,
			"type":"SCALAR"
		},
		{
			"bufferView":4,
			"componentType":5126,
			"count":744,
			"max":[
				2.542998790740967,
				1.38406240940094,
				9.880146980285645
			],
			"min":[
				-3.8748388290405273,
				-1.4066413640975952,
				-1.0691094398498535
			],
			"type":"VEC3"
		},
		{
			"bufferView":5,
			"componentType":5126,
			"count":744,
			"type":"VEC3"
		},
		{
			"bufferView":6,
			"componentType":5126,
			"count":744,
			"type":"VEC2"
		},
		{
			"bufferView":7,
			"componentType":5123,
			"count":1284,
			"type":"SCALAR"
		},
		{
			"bufferView":8,
			"componentType":5126,
			"count":744,
			"max":[
				2.542998790740967,
				1.38406240940094,
				9.880146980285645
			],
			"min":[
				-3.8748388290405273,
				-1.4066413640975952,
				-1.0691094398498535
			],
			"type":"VEC3"
		},
		{
			"bufferView":9,
			"componentType":5126,
			"count":744,
			"type":"VEC3"
		},
		{
			"bufferView":10,
			"componentType":5126,
			"count":744,
			"type":"VEC2"
		},
		{
			"bufferView":11,
			"componentType":5126,
			"count":16384,
			"max":[
				1,
				0.23511576652526855,
				1
			],
			"min":[
				-1,
				-0.3047753572463989,
				-1
			],
			"type":"VEC3"
		},
		{
			"bufferView":12,
			"componentType":5126,
			"count":16384,
			"type":"VEC3"
		},
		{
			"bufferView":13,
			"componentType":5126,
			"count":16384,
			"type":"VEC2"
		},
		{
			"bufferView":14,
			"componentType":5126,
			"count":16384,
			"type":"VEC4"
		},
		{
			"bufferView":15,
			"componentType":5123,
			"count":24576,
			"type":"SCALAR"
		},
		{
			"bufferView":16,
			"componentType":5126,
			"count":8704,
			"max":[
				1.2389183044433594,
				0.2482140064239502,
				1.2014639377593994
			],
			"min":[
				-1.18207585811615,
				-0.6624566316604614,
				-1.2324775457382202
			],
			"type":"VEC3"
		},
		{
			"bufferView":17,
			"componentType":5126,
			"count":8704,
			"type":"VEC3"
		},
		{
			"bufferView":18,
			"componentType":5126,
			"count":8704,
			"type":"VEC2"
		},
		{
			"bufferView":19,
			"componentType":5126,
			"count":8704,
			"type":"VEC4"
		},
		{
			"bufferView":20,
			"componentType":5123,
			"count":13056,
			"type":"SCALAR"
		},
		{
			"bufferView":21,
			"componentType":5126,
			"count":8704,
			"max":[
				1.1634117364883423,
				0.2482140064239502,
				1.2014639377593994
			],
			"min":[
				-1.1820757389068604,
				-0.5349669456481934,
				-1.25235116481781
			],
			"type":"VEC3"
		},
		{
			"bufferView":22,
			"componentType":5126,
			"count":8704,
			"type":"VEC3"
		},
		{
			"bufferView":23,
			"componentType":5126,
			"count":8704,
			"type":"VEC2"
		},
		{
			"bufferView":24,
			"componentType":5126,
			"count":8704,
			"type":"VEC4"
		},
		{
			"bufferView":25,
			"componentType":5123,
			"count":13056,
			"type":"SCALAR"
		},
		{
			"bufferView":26,
			"componentType":5126,
			"count":8,
			"max":[
				0.23895689845085144,
				0.6506590843200684,
				1.1805164813995361
			],
			"min":[
				-0.9962508678436279,
				0.018096767365932465,
				-0.9061188101768494
			],
			"type":"VEC3"
		},
		{
			"bufferView":27,
			"componentType":5126,
			"count":8,
			"type":"VEC3"
		},
		{
			"bufferView":28,
			"componentType":5126,
			"count":8,
			"type":"VEC2"
		},
		{
			"bufferView":29,
			"componentType":5126,
			"count":8,
			"type":"VEC4"
		},
		{
			"bufferView":30,
			"componentType":5123,
			"count":12,
			"type":"SCALAR"
		},
		{
			"bufferView":31,
			"componentType":5126,
			"count":4096,
			"max":[
				1,
				0.31626760959625244,
				1.2144858837127686
			],
			"min":[
				-1.0024361610412598,
				-0.2977637052536011,
				-1
			],
			"type":"VEC3"
		},
		{
			"bufferView":32,
			"componentType":5126,
			"count":4096,
			"type":"VEC3"
		},
		{
			"bufferView":33,
			"componentType":5126,
			"count":4096,
			"type":"VEC2"
		},
		{
			"bufferView":34,
			"componentType":5126,
			"count":4096,
			"type":"VEC4"
		},
		{
			"bufferView":35,
			"componentType":5123,
			"count":6144,
			"type":"SCALAR"
		},
		{
			"bufferView":36,
			"componentType":5126,
			"count":3940,
			"max":[
				1.0502010583877563,
				0.2725569009780884,
				1
			],
			"min":[
				-1,
				-0.2977637052536011,
				-1.057564377784729
			],
			"type":"VEC3"
		},
		{
			"bufferView":37,
			"componentType":5126,
			"count":3940,
			"type":"VEC3"
		},
		{
			"bufferView":38,
			"componentType":5126,
			"count":3940,
			"type":"VEC2"
		},
		{
			"bufferView":39,
			"componentType":5126,
			"count":3940,
			"type":"VEC4"
		},
		{
			"bufferView":40,
			"componentType":5123,
			"count":5910,
			"type":"SCALAR"
		},
		{
			"bufferView":41,
			"componentType":5126,
			"count":3940,
			"max":[
				1.0872135162353516,
				0.2725569009780884,
				1
			],
			"min":[
				-1,
				-0.3041186034679413,
				-1.057564377784729
			],
			"type":"VEC3"
		},
		{
			"bufferView":42,
			"componentType":5126,
			"count":3940,
			"type":"VEC3"
		},
		{
			"bufferView":43,
			"componentType":5126,
			"count":3940,
			"type":"VEC2"
		},
		{
			"bufferView":44,
			"componentType":5126,
			"count":3940,
			"type":"VEC4"
		},
		{
			"bufferView":45,
			"componentType":5123,
			"count":5910,
			"type":"SCALAR"
		},
		{
			"bufferView":46,
			"componentType":5126,
			"count":4096,
			"max":[
				1,
				0.31626760959625244,
				1.2144858837127686
			],
			"min":[
				-1.0024361610412598,
				-0.2977637052536011,
				-1
			],
			"type":"VEC3"
		},
		{
			"bufferView":47,
			"componentType":5126,
			"count":4096,
			"type":"VEC3"
		},
		{
			"bufferView":48,
			"componentType":5126,
			"count":4096,
			"type":"VEC2"
		},
		{
			"bufferView":49,
			"componentType":5126,
			"count":4096,
			"type":"VEC4"
		},
		{
			"bufferView":50,
			"componentType":5126,
			"count":3940,
			"max":[
				1,
				0.31626760959625244,
				1
			],
			"min":[
				-1,
				-0.2977637052536011,
				-1.057564377784729
			],
			"type":"VEC3"
		},
		{
			"bufferView":51,
			"componentType":5126,
			"count":3940,
			"type":"VEC3"
		},
		{
			"bufferView":52,
			"componentType":5126,
			"count":3940,
			"type":"VEC2"
		},
		{
			"bufferView":53,
			"componentType":5126,
			"count":3940,
			"type":"VEC4"
		},
		{
			"bufferView":54,
			"componentType":5123,
			"count":5910,
			"type":"SCALAR"
		},
		{
			"bufferView":55,
			"componentType":5126,
			"count":4096,
			"max":[
				1,
				0.31626760959625244,
				1.2144858837127686
			],
			"min":[
				-1.0024361610412598,
				-0.2977637052536011,
				-1
			],
			"type":"VEC3"
		},
		{
			"bufferView":56,
			"componentType":5126,
			"count":4096,
			"type":"VEC3"
		},
		{
			"bufferView":57,
			"componentType":5126,
			"count":4096,
			"type":"VEC2"
		},
		{
			"bufferView":58,
			"componentType":5126,
			"count":4096,
			"type":"VEC4"
		},
		{
			"bufferView":59,
			"componentType":5126,
			"count":4040,
			"max":[
				0.8764564990997314,
				0.18902182579040527,
				1.2144858837127686
			],
			"min":[
				-1.0924632549285889,
				-0.9138201475143433,
				-1.0724905729293823
			],
			"type":"VEC3"
		},
		{
			"bufferView":60,
			"componentType":5126,
			"count":4040,
			"type":"VEC3"
		},
		{
			"bufferView":61,
			"componentType":5126,
			"count":4040,
			"type":"VEC2"
		},
		{
			"bufferView":62,
			"componentType":5126,
			"count":4040,
			"type":"VEC4"
		},
		{
			"bufferView":63,
			"componentType":5123,
			"count":6060,
			"type":"SCALAR"
		},
		{
			"bufferView":64,
			"componentType":5126,
			"count":3940,
			"max":[
				1,
				0.31626760959625244,
				1
			],
			"min":[
				-1,
				-0.2977637052536011,
				-1.057564377784729
			],
			"type":"VEC3"
		},
		{
			"bufferView":65,
			"componentType":5126,
			"count":3940,
			"type":"VEC3"
		},
		{
			"bufferView":66,
			"componentType":5126,
			"count":3940,
			"type":"VEC2"
		},
		{
			"bufferView":67,
			"componentType":5126,
			"count":3940,
			"type":"VEC4"
		},
		{
			"bufferView":68,
			"componentType":5126,
			"count":4096,
			"max":[
				1.0964709520339966,
				0.31626760959625244,
				1.2144858837127686
			],
			"min":[
				-1.0024361610412598,
				-0.40223440527915955,
				-1
			],
			"type":"VEC3"
		},
		{
			"bufferView":69,
			"componentType":5126,
			"count":4096,
			"type":"VEC3"
		},
		{
			"bufferView":70,
			"componentType":5126,
			"count":4096,
			"type":"VEC2"
		},
		{
			"bufferView":71,
			"componentType":5126,
			"count":4096,
			"type":"VEC4"
		},
		{
			"bufferView":72,
			"componentType":5123,
			"count":6144,
			"type":"SCALAR"
		},
		{
			"bufferView":73,
			"componentType":5126,
			"count":3940,
			"max":[
				1,
				0.31626760959625244,
				1
			],
			"min":[
				-1,
				-0.2977637052536011,
				-1.057564377784729
			],
			"type":"VEC3"
		},
		{
			"bufferView":74,
			"componentType":5126,
			"count":3940,
			"type":"VEC3"
		},
		{
			"bufferView":75,
			"componentType":5126,
			"count":3940,
			"type":"VEC2"
		},
		{
			"bufferView":76,
			"componentType":5126,
			"count":3940,
			"type":"VEC4"
		},
		{
			"bufferView":77,
			"componentType":5126,
			"count":24,
			"max":[
				0.844666600227356,
				4.157882213592529,
				2.089750051498413
			],
			"min":[
				-4.928194046020508,
				-0.11080585420131683,
				-0.9923791885375977
			],
			"type":"VEC3"
		},
		{
			"bufferView":78,
			"componentType":5126,
			"count":24,
			"type":"VEC3"
		},
		{
			"bufferView":79,
			"componentType":5126,
			"count":24,
			"type":"VEC2"
		},
		{
			"bufferView":80,
			"componentType":5123,
			"count":54,
			"type":"SCALAR"
		},
		{
			"bufferView":81,
			"componentType":5126,
			"count":1216,
			"max":[
				50.41982650756836,
				1.1796797513961792,
				4.299880504608154
			],
			"min":[
				-1,
				-2.147371530532837,
				-3.5112900733947754
			],
			"type":"VEC3"
		},
		{
			"bufferView":82,
			"componentType":5126,
			"count":1216,
			"type":"VEC3"
		},
		{
			"bufferView":83,
			"componentType":5126,
			"count":1216,
			"type":"VEC2"
		},
		{
			"bufferView":84,
			"componentType":5123,
			"count":1758,
			"type":"SCALAR"
		},
		{
			"bufferView":85,
			"componentType":5126,
			"count":416,
			"max":[
				1,
				1.0000001192092896,
				1
			],
			"min":[
				-1,
				-1,
				-1
			],
			"type":"VEC3"
		},
		{
			"bufferView":86,
			"componentType":5126,
			"count":416,
			"type":"VEC3"
		},
		{
			"bufferView":87,
			"componentType":5126,
			"count":416,
			"type":"VEC2"
		},
		{
			"bufferView":88,
			"componentType":5123,
			"count":1098,
			"type":"SCALAR"
		},
		{
			"bufferView":89,
			"componentType":5126,
			"count":8,
			"max":[
				0.15311172604560852,
				0.6506590843200684,
				1.1805164813995361
			],
			"min":[
				-0.9572715759277344,
				-0.08657588064670563,
				-0.9061188101768494
			],
			"type":"VEC3"
		},
		{
			"bufferView":90,
			"componentType":5126,
			"count":8,
			"type":"VEC3"
		},
		{
			"bufferView":91,
			"componentType":5126,
			"count":8,
			"type":"VEC2"
		},
		{
			"bufferView":92,
			"componentType":5126,
			"count":8,
			"type":"VEC4"
		},
		{
			"bufferView":93,
			"componentType":5126,
			"count":24,
			"max":[
				0.844666600227356,
				4.157882213592529,
				2.089750051498413
			],
			"min":[
				-4.928194046020508,
				-0.11080585420131683,
				-0.9923791885375977
			],
			"type":"VEC3"
		},
		{
			"bufferView":94,
			"componentType":5126,
			"count":24,
			"type":"VEC3"
		},
		{
			"bufferView":95,
			"componentType":5126,
			"count":24,
			"type":"VEC2"
		},
		{
			"bufferView":96,
			"componentType":5123,
			"count":54,
			"type":"SCALAR"
		},
		{
			"bufferView":97,
			"componentType":5126,
			"count":1152,
			"max":[
				47.828670501708984,
				1,
				3.92256498336792
			],
			"min":[
				-1,
				-2.287431240081787,
				-3.181335687637329
			],
			"type":"VEC3"
		},
		{
			"bufferView":98,
			"componentType":5126,
			"count":1152,
			"type":"VEC3"
		},
		{
			"bufferView":99,
			"componentType":5126,
			"count":1152,
			"type":"VEC2"
		},
		{
			"bufferView":100,
			"componentType":5123,
			"count":1674,
			"type":"SCALAR"
		},
		{
			"bufferView":101,
			"componentType":5126,
			"count":622,
			"max":[
				23.436948776245117,
				2.3724241256713867,
				10.069021224975586
			],
			"min":[
				-21.738351821899414,
				-2.692195415496826,
				-5.239380836486816
			],
			"type":"VEC3"
		},
		{
			"bufferView":102,
			"componentType":5126,
			"count":622,
			"type":"VEC3"
		},
		{
			"bufferView":103,
			"componentType":5126,
			"count":622,
			"type":"VEC2"
		},
		{
			"bufferView":104,
			"componentType":5123,
			"count":2256,
			"type":"SCALAR"
		},
		{
			"bufferView":105,
			"componentType":5126,
			"count":1440,
			"max":[
				21.746971130371094,
				1.731998324394226,
				7.829669952392578
			],
			"min":[
				-19.957529067993164,
				-1.565869927406311,
				-4.970073223114014
			],
			"type":"VEC3"
		},
		{
			"bufferView":106,
			"componentType":5126,
			"count":1440,
			"type":"VEC3"
		},
		{
			"bufferView":107,
			"componentType":5126,
			"count":1440,
			"type":"VEC2"
		},
		{
			"bufferView":108,
			"componentType":5123,
			"count":2640,
			"type":"SCALAR"
		},
		{
			"bufferView":109,
			"componentType":5126,
			"count":622,
			"max":[
				23.436948776245117,
				2.3724241256713867,
				10.069021224975586
			],
			"min":[
				-21.738351821899414,
				-2.692195415496826,
				-5.239380836486816
			],
			"type":"VEC3"
		},
		{
			"bufferView":110,
			"componentType":5126,
			"count":622,
			"type":"VEC3"
		},
		{
			"bufferView":111,
			"componentType":5126,
			"count":622,
			"type":"VEC2"
		},
		{
			"bufferView":112,
			"componentType":5126,
			"count":1440,
			"max":[
				21.746971130371094,
				1.731998324394226,
				7.829669952392578
			],
			"min":[
				-19.957529067993164,
				-1.565869927406311,
				-4.970073223114014
			],
			"type":"VEC3"
		},
		{
			"bufferView":113,
			"componentType":5126,
			"count":1440,
			"type":"VEC3"
		},
		{
			"bufferView":114,
			"componentType":5126,
			"count":1440,
			"type":"VEC2"
		},
		{
			"bufferView":115,
			"componentType":5123,
			"count":2640,
			"type":"SCALAR"
		},
		{
			"bufferView":116,
			"componentType":5126,
			"count":744,
			"max":[
				2.542998790740967,
				1.38406240940094,
				9.880146980285645
			],
			"min":[
				-3.8748388290405273,
				-1.4066413640975952,
				-1.0691094398498535
			],
			"type":"VEC3"
		},
		{
			"bufferView":117,
			"componentType":5126,
			"count":744,
			"type":"VEC3"
		},
		{
			"bufferView":118,
			"componentType":5126,
			"count":744,
			"type":"VEC2"
		},
		{
			"bufferView":119,
			"componentType":5126,
			"count":744,
			"max":[
				2.542998790740967,
				1.38406240940094,
				9.880146980285645
			],
			"min":[
				-3.8748388290405273,
				-1.4066413640975952,
				-1.0691094398498535
			],
			"type":"VEC3"
		},
		{
			"bufferView":120,
			"componentType":5126,
			"count":744,
			"type":"VEC3"
		},
		{
			"bufferView":121,
			"componentType":5126,
			"count":744,
			"type":"VEC2"
		},
		{
			"bufferView":122,
			"componentType":5126,
			"count":744,
			"max":[
				2.5429985523223877,
				1.3840622901916504,
				9.880146026611328
			],
			"min":[
				-3.874838352203369,
				-1.4066412448883057,
				-1.0691099166870117
			],
			"type":"VEC3"
		},
		{
			"bufferView":123,
			"componentType":5126,
			"count":744,
			"type":"VEC3"
		},
		{
			"bufferView":124,
			"componentType":5126,
			"count":744,
			"type":"VEC2"
		},
		{
			"bufferView":125,
			"componentType":5126,
			"count":744,
			"max":[
				2.542998790740967,
				1.38406240940094,
				9.880146980285645
			],
			"min":[
				-3.8748388290405273,
				-1.4066413640975952,
				-1.0691094398498535
			],
			"type":"VEC3"
		},
		{
			"bufferView":126,
			"componentType":5126,
			"count":744,
			"type":"VEC3"
		},
		{
			"bufferView":127,
			"componentType":5126,
			"count":744,
			"type":"VEC2"
		},
		{
			"bufferView":128,
			"componentType":5126,
			"count":744,
			"max":[
				2.542998790740967,
				1.38406240940094,
				9.880146980285645
			],
			"min":[
				-3.8748388290405273,
				-1.4066413640975952,
				-1.0691094398498535
			],
			"type":"VEC3"
		},
		{
			"bufferView":129,
			"componentType":5126,
			"count":744,
			"type":"VEC3"
		},
		{
			"bufferView":130,
			"componentType":5126,
			"count":744,
			"type":"VEC2"
		},
		{
			"bufferView":131,
			"componentType":5126,
			"count":744,
			"max":[
				2.542998790740967,
				1.38406240940094,
				9.880146980285645
			],
			"min":[
				-3.8748388290405273,
				-1.4066413640975952,
				-1.0691094398498535
			],
			"type":"VEC3"
		},
		{
			"bufferView":132,
			"componentType":5126,
			"count":744,
			"type":"VEC3"
		},
		{
			"bufferView":133,
			"componentType":5126,
			"count":744,
			"type":"VEC2"
		},
		{
			"bufferView":134,
			"componentType":5126,
			"count":744,
			"max":[
				2.542998790740967,
				1.38406240940094,
				9.880146980285645
			],
			"min":[
				-3.8748388290405273,
				-1.4066413640975952,
				-1.0691094398498535
			],
			"type":"VEC3"
		},
		{
			"bufferView":135,
			"componentType":5126,
			"count":744,
			"type":"VEC3"
		},
		{
			"bufferView":136,
			"componentType":5126,
			"count":744,
			"type":"VEC2"
		},
		{
			"bufferView":137,
			"componentType":5126,
			"count":744,
			"max":[
				2.542998790740967,
				1.38406240940094,
				9.880146980285645
			],
			"min":[
				-3.8748388290405273,
				-1.4066413640975952,
				-1.0691094398498535
			],
			"type":"VEC3"
		},
		{
			"bufferView":138,
			"componentType":5126,
			"count":744,
			"type":"VEC3"
		},
		{
			"bufferView":139,
			"componentType":5126,
			"count":744,
			"type":"VEC2"
		},
		{
			"bufferView":140,
			"componentType":5126,
			"count":744,
			"max":[
				2.542998790740967,
				1.38406240940094,
				9.880146980285645
			],
			"min":[
				-3.8748388290405273,
				-1.4066413640975952,
				-1.0691094398498535
			],
			"type":"VEC3"
		},
		{
			"bufferView":141,
			"componentType":5126,
			"count":744,
			"type":"VEC3"
		},
		{
			"bufferView":142,
			"componentType":5126,
			"count":744,
			"type":"VEC2"
		},
		{
			"bufferView":143,
			"componentType":5126,
			"count":498,
			"max":[
				1.0980106592178345,
				1.208613634109497,
				0.968982458114624
			],
			"min":[
				-0.5737884640693665,
				-1.3430198431015015,
				-0.7170325517654419
			],
			"type":"VEC3"
		},
		{
			"bufferView":144,
			"componentType":5126,
			"count":498,
			"type":"VEC3"
		},
		{
			"bufferView":145,
			"componentType":5126,
			"count":498,
			"type":"VEC2"
		},
		{
			"bufferView":146,
			"componentType":5123,
			"count":720,
			"type":"SCALAR"
		},
		{
			"bufferView":147,
			"componentType":5126,
			"count":996,
			"max":[
				1.9757323265075684,
				1.2086138725280762,
				0.9689834117889404
			],
			"min":[
				-0.583577036857605,
				-1.4856691360473633,
				-0.7170315384864807
			],
			"type":"VEC3"
		},
		{
			"bufferView":148,
			"componentType":5126,
			"count":996,
			"type":"VEC3"
		},
		{
			"bufferView":149,
			"componentType":5126,
			"count":996,
			"type":"VEC2"
		},
		{
			"bufferView":150,
			"componentType":5123,
			"count":1440,
			"type":"SCALAR"
		},
		{
			"bufferView":151,
			"componentType":5126,
			"count":498,
			"max":[
				0.3782165050506592,
				1.2432142496109009,
				1.2477868795394897
			],
			"min":[
				-1.232039213180542,
				-1.7761127948760986,
				-0.3584367036819458
			],
			"type":"VEC3"
		},
		{
			"bufferView":152,
			"componentType":5126,
			"count":498,
			"type":"VEC3"
		},
		{
			"bufferView":153,
			"componentType":5126,
			"count":498,
			"type":"VEC2"
		},
		{
			"bufferView":154,
			"componentType":5123,
			"count":720,
			"type":"SCALAR"
		},
		{
			"bufferView":155,
			"componentType":5126,
			"count":498,
			"max":[
				0.3782162666320801,
				1.2432136535644531,
				1.2477864027023315
			],
			"min":[
				-1.232039213180542,
				-1.7761127948760986,
				-0.358437180519104
			],
			"type":"VEC3"
		},
		{
			"bufferView":156,
			"componentType":5126,
			"count":498,
			"type":"VEC3"
		},
		{
			"bufferView":157,
			"componentType":5126,
			"count":498,
			"type":"VEC2"
		},
		{
			"bufferView":158,
			"componentType":5123,
			"count":720,
			"type":"SCALAR"
		},
		{
			"bufferView":159,
			"componentType":5126,
			"count":498,
			"max":[
				0.378214955329895,
				1.2432136535644531,
				1.2477868795394897
			],
			"min":[
				-1.2320408821105957,
				-1.7761127948760986,
				-0.35843729972839355
			],
			"type":"VEC3"
		},
		{
			"bufferView":160,
			"componentType":5126,
			"count":498,
			"type":"VEC3"
		},
		{
			"bufferView":161,
			"componentType":5126,
			"count":498,
			"type":"VEC2"
		},
		{
			"bufferView":162,
			"componentType":5126,
			"count":166,
			"max":[
				0.2244112491607666,
				0.9196759462356567,
				0.49187755584716797
			],
			"min":[
				-0.5737884640693665,
				-0.839889407157898,
				-0.23321537673473358
			],
			"type":"VEC3"
		},
		{
			"bufferView":163,
			"componentType":5126,
			"count":166,
			"type":"VEC3"
		},
		{
			"bufferView":164,
			"componentType":5126,
			"count":166,
			"type":"VEC2"
		},
		{
			"bufferView":165,
			"componentType":5123,
			"count":240,
			"type":"SCALAR"
		},
		{
			"bufferView":166,
			"componentType":5126,
			"count":166,
			"max":[
				0.2244112491607666,
				0.9196759462356567,
				0.49187755584716797
			],
			"min":[
				-0.5737884640693665,
				-0.839889407157898,
				-0.23321537673473358
			],
			"type":"VEC3"
		},
		{
			"bufferView":167,
			"componentType":5126,
			"count":166,
			"type":"VEC3"
		},
		{
			"bufferView":168,
			"componentType":5126,
			"count":166,
			"type":"VEC2"
		},
		{
			"bufferView":169,
			"componentType":5126,
			"count":166,
			"max":[
				0.2244112491607666,
				0.9196759462356567,
				0.49187755584716797
			],
			"min":[
				-0.5737884640693665,
				-0.839889407157898,
				-0.23321537673473358
			],
			"type":"VEC3"
		},
		{
			"bufferView":170,
			"componentType":5126,
			"count":166,
			"type":"VEC3"
		},
		{
			"bufferView":171,
			"componentType":5126,
			"count":166,
			"type":"VEC2"
		},
		{
			"bufferView":172,
			"componentType":5126,
			"count":166,
			"max":[
				0.2244112491607666,
				0.9196759462356567,
				0.49187755584716797
			],
			"min":[
				-0.5737884640693665,
				-0.839889407157898,
				-0.23321537673473358
			],
			"type":"VEC3"
		},
		{
			"bufferView":173,
			"componentType":5126,
			"count":166,
			"type":"VEC3"
		},
		{
			"bufferView":174,
			"componentType":5126,
			"count":166,
			"type":"VEC2"
		},
		{
			"bufferView":175,
			"componentType":5126,
			"count":498,
			"max":[
				0.9520092010498047,
				1.0496193170547485,
				1.3690534830093384
			],
			"min":[
				-0.5737884640693665,
				-0.8969031572341919,
				-0.23321537673473358
			],
			"type":"VEC3"
		},
		{
			"bufferView":176,
			"componentType":5126,
			"count":498,
			"type":"VEC3"
		},
		{
			"bufferView":177,
			"componentType":5126,
			"count":498,
			"type":"VEC2"
		},
		{
			"bufferView":178,
			"componentType":5123,
			"count":720,
			"type":"SCALAR"
		},
		{
			"bufferView":179,
			"componentType":5126,
			"count":498,
			"max":[
				0.9520092010498047,
				1.0496193170547485,
				1.3690537214279175
			],
			"min":[
				-0.5737884640693665,
				-0.8969032764434814,
				-0.23321537673473358
			],
			"type":"VEC3"
		},
		{
			"bufferView":180,
			"componentType":5126,
			"count":498,
			"type":"VEC3"
		},
		{
			"bufferView":181,
			"componentType":5126,
			"count":498,
			"type":"VEC2"
		},
		{
			"bufferView":182,
			"componentType":5123,
			"count":720,
			"type":"SCALAR"
		},
		{
			"bufferView":183,
			"componentType":5126,
			"count":498,
			"max":[
				1.1059138774871826,
				1.1788930892944336,
				1.201399326324463
			],
			"min":[
				-0.5737884640693665,
				-0.839889407157898,
				-0.23321537673473358
			],
			"type":"VEC3"
		},
		{
			"bufferView":184,
			"componentType":5126,
			"count":498,
			"type":"VEC3"
		},
		{
			"bufferView":185,
			"componentType":5126,
			"count":498,
			"type":"VEC2"
		},
		{
			"bufferView":186,
			"componentType":5123,
			"count":720,
			"type":"SCALAR"
		},
		{
			"bufferView":187,
			"componentType":5126,
			"count":498,
			"max":[
				0.9520092010498047,
				1.0496193170547485,
				1.3690534830093384
			],
			"min":[
				-0.5737884640693665,
				-0.8969031572341919,
				-0.23321537673473358
			],
			"type":"VEC3"
		},
		{
			"bufferView":188,
			"componentType":5126,
			"count":498,
			"type":"VEC3"
		},
		{
			"bufferView":189,
			"componentType":5126,
			"count":498,
			"type":"VEC2"
		},
		{
			"bufferView":190,
			"componentType":5126,
			"count":166,
			"max":[
				0.2244112491607666,
				0.9196759462356567,
				0.49187755584716797
			],
			"min":[
				-0.5737884640693665,
				-0.839889407157898,
				-0.23321537673473358
			],
			"type":"VEC3"
		},
		{
			"bufferView":191,
			"componentType":5126,
			"count":166,
			"type":"VEC3"
		},
		{
			"bufferView":192,
			"componentType":5126,
			"count":166,
			"type":"VEC2"
		},
		{
			"bufferView":193,
			"componentType":5126,
			"count":166,
			"max":[
				0.2244112491607666,
				0.9196759462356567,
				0.49187755584716797
			],
			"min":[
				-0.5737884640693665,
				-0.839889407157898,
				-0.23321537673473358
			],
			"type":"VEC3"
		},
		{
			"bufferView":194,
			"componentType":5126,
			"count":166,
			"type":"VEC3"
		},
		{
			"bufferView":195,
			"componentType":5126,
			"count":166,
			"type":"VEC2"
		},
		{
			"bufferView":196,
			"componentType":5126,
			"count":166,
			"max":[
				0.2244112491607666,
				0.9196759462356567,
				0.49187755584716797
			],
			"min":[
				-0.5737884640693665,
				-0.839889407157898,
				-0.23321537673473358
			],
			"type":"VEC3"
		},
		{
			"bufferView":197,
			"componentType":5126,
			"count":166,
			"type":"VEC3"
		},
		{
			"bufferView":198,
			"componentType":5126,
			"count":166,
			"type":"VEC2"
		},
		{
			"bufferView":199,
			"componentType":5126,
			"count":166,
			"max":[
				0.2244112491607666,
				0.9196759462356567,
				0.49187755584716797
			],
			"min":[
				-0.5737884640693665,
				-0.839889407157898,
				-0.23321537673473358
			],
			"type":"VEC3"
		},
		{
			"bufferView":200,
			"componentType":5126,
			"count":166,
			"type":"VEC3"
		},
		{
			"bufferView":201,
			"componentType":5126,
			"count":166,
			"type":"VEC2"
		},
		{
			"bufferView":202,
			"componentType":5126,
			"count":922,
			"max":[
				0.41207998991012573,
				1.9668543338775635,
				0.8154767751693726
			],
			"min":[
				-0.3049200773239136,
				0.036144450306892395,
				-0.8154767751693726
			],
			"type":"VEC3"
		},
		{
			"bufferView":203,
			"componentType":5126,
			"count":922,
			"type":"VEC3"
		},
		{
			"bufferView":204,
			"componentType":5126,
			"count":922,
			"type":"VEC2"
		},
		{
			"bufferView":205,
			"componentType":5123,
			"count":5040,
			"type":"SCALAR"
		},
		{
			"bufferView":206,
			"componentType":5126,
			"count":500,
			"max":[
				0.49254441261291504,
				1.9573324918746948,
				0.874099850654602
			],
			"min":[
				-0.2372947484254837,
				0.0004071126168128103,
				-0.874099850654602
			],
			"type":"VEC3"
		},
		{
			"bufferView":207,
			"componentType":5126,
			"count":500,
			"type":"VEC3"
		},
		{
			"bufferView":208,
			"componentType":5126,
			"count":500,
			"type":"VEC2"
		},
		{
			"bufferView":209,
			"componentType":5123,
			"count":2184,
			"type":"SCALAR"
		},
		{
			"bufferView":210,
			"componentType":5126,
			"count":728,
			"max":[
				0.17954882979393005,
				1.7947702407836914,
				0.1481088250875473
			],
			"min":[
				-0.08404432237148285,
				1.4512207508087158,
				-0.1481088250875473
			],
			"type":"VEC3"
		},
		{
			"bufferView":211,
			"componentType":5126,
			"count":728,
			"type":"VEC3"
		},
		{
			"bufferView":212,
			"componentType":5126,
			"count":728,
			"type":"VEC2"
		},
		{
			"bufferView":213,
			"componentType":5123,
			"count":4428,
			"type":"SCALAR"
		},
		{
			"bufferView":214,
			"componentType":5126,
			"count":1049,
			"max":[
				0.17976786196231842,
				1.5169146060943604,
				0.2739715576171875
			],
			"min":[
				-0.11554396152496338,
				0.05456394702196121,
				-0.2739715576171875
			],
			"type":"VEC3"
		},
		{
			"bufferView":215,
			"componentType":5126,
			"count":1049,
			"type":"VEC3"
		},
		{
			"bufferView":216,
			"componentType":5126,
			"count":1049,
			"type":"VEC2"
		},
		{
			"bufferView":217,
			"componentType":5126,
			"count":1049,
			"type":"VEC4"
		},
		{
			"bufferView":218,
			"componentType":5123,
			"count":3720,
			"type":"SCALAR"
		},
		{
			"bufferView":219,
			"componentType":5126,
			"count":1442,
			"max":[
				0.32939255237579346,
				1.5274677276611328,
				0.584412157535553
			],
			"min":[
				-0.23660533130168915,
				-0.019019871950149536,
				-0.584412157535553
			],
			"type":"VEC3"
		},
		{
			"bufferView":220,
			"componentType":5126,
			"count":1442,
			"type":"VEC3"
		},
		{
			"bufferView":221,
			"componentType":5126,
			"count":1442,
			"type":"VEC2"
		},
		{
			"bufferView":222,
			"componentType":5123,
			"count":7212,
			"type":"SCALAR"
		},
		{
			"bufferView":223,
			"componentType":5126,
			"count":688,
			"max":[
				0.39088699221611023,
				1.779280424118042,
				0.5929214954376221
			],
			"min":[
				-0.05078975483775139,
				0.009977281093597412,
				-0.5929214954376221
			],
			"type":"VEC3"
		},
		{
			"bufferView":224,
			"componentType":5126,
			"count":688,
			"type":"VEC3"
		},
		{
			"bufferView":225,
			"componentType":5126,
			"count":688,
			"type":"VEC2"
		},
		{
			"bufferView":226,
			"componentType":5123,
			"count":2577,
			"type":"SCALAR"
		},
		{
			"bufferView":227,
			"componentType":5126,
			"count":922,
			"max":[
				0.41207998991012573,
				2.0343620777130127,
				0.8154767751693726
			],
			"min":[
				-0.3049200773239136,
				0.036144450306892395,
				-0.8154767751693726
			],
			"type":"VEC3"
		},
		{
			"bufferView":228,
			"componentType":5126,
			"count":922,
			"type":"VEC3"
		},
		{
			"bufferView":229,
			"componentType":5126,
			"count":922,
			"type":"VEC2"
		},
		{
			"bufferView":230,
			"componentType":5126,
			"count":500,
			"max":[
				0.49254441261291504,
				2.181924343109131,
				0.874099850654602
			],
			"min":[
				-0.5670225620269775,
				0.0006696738419122994,
				-0.874099850654602
			],
			"type":"VEC3"
		},
		{
			"bufferView":231,
			"componentType":5126,
			"count":500,
			"type":"VEC3"
		},
		{
			"bufferView":232,
			"componentType":5126,
			"count":500,
			"type":"VEC2"
		},
		{
			"bufferView":233,
			"componentType":5123,
			"count":2184,
			"type":"SCALAR"
		}
	],
	"bufferViews":[
		{
			"buffer":0,
			"byteLength":8928,
			"byteOffset":0,
			"target":34962
		},
		{
			"buffer":0,
			"byteLength":8928,
			"byteOffset":8928,
			"target":34962
		},
		{
			"buffer":0,
			"byteLength":5952,
			"byteOffset":17856,
			"target":34962
		},
		{
			"buffer":0,
			"byteLength":2568,
			"byteOffset":23808,
			"target":34963
		},
		{
			"buffer":0,
			"byteLength":8928,
			"byteOffset":26376,
			"target":34962
		},
		{
			"buffer":0,
			"byteLength":8928,
			"byteOffset":35304,
			"target":34962
		},
		{
			"buffer":0,
			"byteLength":5952,
			"byteOffset":44232,
			"target":34962
		},
		{
			"buffer":0,
			"byteLength":2568,
			"byteOffset":50184,
			"target":34963
		},
		{
			"buffer":0,
			"byteLength":8928,
			"byteOffset":52752,
			"target":34962
		},
		{
			"buffer":0,
			"byteLength":8928,
			"byteOffset":61680,
			"target":34962
		},
		{
			"buffer":0,
			"byteLength":5952,
			"byteOffset":70608,
			"target":34962
		},
		{
			"buffer":0,
			"byteLength":196608,
			"byteOffset":76560,
			"target":34962
		},
		{
			"buffer":0,
			"byteLength":196608,
			"byteOffset":273168,
			"target":34962
		},
		{
			"buffer":0,
			"byteLength":131072,
			"byteOffset":469776,
			"target":34962
		},
		{
			"buffer":0,
			"byteLength":262144,
			"byteOffset":600848,
			"target":34962
		},
		{
			"buffer":0,
			"byteLength":49152,
			"byteOffset":862992,
			"target":34963
		},
		{
			"buffer":0,
			"byteLength":104448,
			"byteOffset":912144,
			"target":34962
		},
		{
			"buffer":0,
			"byteLength":104448,
			"byteOffset":1016592,
			"target":34962
		},
		{
			"buffer":0,
			"byteLength":69632,
			"byteOffset":1121040,
			"target":34962
		},
		{
			"buffer":0,
			"byteLength":139264,
			"byteOffset":1190672,
			"target":34962
		},
		{
			"buffer":0,
			"byteLength":26112,
			"byteOffset":1329936,
			"target":34963
		},
		{
			"buffer":0,
			"byteLength":104448,
			"byteOffset":1356048,
			"target":34962
		},
		{
			"buffer":0,
			"byteLength":104448,
			"byteOffset":1460496,
			"target":34962
		},
		{
			"buffer":0,
			"byteLength":69632,
			"byteOffset":1564944,
			"target":34962
		},
		{
			"buffer":0,
			"byteLength":139264,
			"byteOffset":1634576,
			"target":34962
		},
		{
			"buffer":0,
			"byteLength":26112,
			"byteOffset":1773840,
			"target":34963
		},
		{
			"buffer":0,
			"byteLength":96,
			"byteOffset":1799952,
			"target":34962
		},
		{
			"buffer":0,
			"byteLength":96,
			"byteOffset":1800048,
			"target":34962
		},
		{
			"buffer":0,
			"byteLength":64,
			"byteOffset":1800144,
			"target":34962
		},
		{
			"buffer":0,
			"byteLength":128,
			"byteOffset":1800208,
			"target":34962
		},
		{
			"buffer":0,
			"byteLength":24,
			"byteOffset":1800336,
			"target":34963
		},
		{
			"buffer":0,
			"byteLength":49152,
			"byteOffset":1800360,
			"target":34962
		},
		{
			"buffer":0,
			"byteLength":49152,
			"byteOffset":1849512,
			"target":34962
		},
		{
			"buffer":0,
			"byteLength":32768,
			"byteOffset":1898664,
			"target":34962
		},
		{
			"buffer":0,
			"byteLength":65536,
			"byteOffset":1931432,
			"target":34962
		},
		{
			"buffer":0,
			"byteLength":12288,
			"byteOffset":1996968,
			"target":34963
		},
		{
			"buffer":0,
			"byteLength":47280,
			"byteOffset":2009256,
			"target":34962
		},
		{
			"buffer":0,
			"byteLength":47280,
			"byteOffset":2056536,
			"target":34962
		},
		{
			"buffer":0,
			"byteLength":31520,
			"byteOffset":2103816,
			"target":34962
		},
		{
			"buffer":0,
			"byteLength":63040,
			"byteOffset":2135336,
			"target":34962
		},
		{
			"buffer":0,
			"byteLength":11820,
			"byteOffset":2198376,
			"target":34963
		},
		{
			"buffer":0,
			"byteLength":47280,
			"byteOffset":2210196,
			"target":34962
		},
		{
			"buffer":0,
			"byteLength":47280,
			"byteOffset":2257476,
			"target":34962
		},
		{
			"buffer":0,
			"byteLength":31520,
			"byteOffset":2304756,
			"target":34962
		},
		{
			"buffer":0,
			"byteLength":63040,
			"byteOffset":2336276,
			"target":34962
		},
		{
			"buffer":0,
			"byteLength":11820,
			"byteOffset":2399316,
			"target":34963
		},
		{
			"buffer":0,
			"byteLength":49152,
			"byteOffset":2411136,
			"target":34962
		},
		{
			"buffer":0,
			"byteLength":49152,
			"byteOffset":2460288,
			"target":34962
		},
		{
			"buffer":0,
			"byteLength":32768,
			"byteOffset":2509440,
			"target":34962
		},
		{
			"buffer":0,
			"byteLength":65536,
			"byteOffset":2542208,
			"target":34962
		},
		{
			"buffer":0,
			"byteLength":47280,
			"byteOffset":2607744,
			"target":34962
		},
		{
			"buffer":0,
			"byteLength":47280,
			"byteOffset":2655024,
			"target":34962
		},
		{
			"buffer":0,
			"byteLength":31520,
			"byteOffset":2702304,
			"target":34962
		},
		{
			"buffer":0,
			"byteLength":63040,
			"byteOffset":2733824,
			"target":34962
		},
		{
			"buffer":0,
			"byteLength":11820,
			"byteOffset":2796864,
			"target":34963
		},
		{
			"buffer":0,
			"byteLength":49152,
			"byteOffset":2808684,
			"target":34962
		},
		{
			"buffer":0,
			"byteLength":49152,
			"byteOffset":2857836,
			"target":34962
		},
		{
			"buffer":0,
			"byteLength":32768,
			"byteOffset":2906988,
			"target":34962
		},
		{
			"buffer":0,
			"byteLength":65536,
			"byteOffset":2939756,
			"target":34962
		},
		{
			"buffer":0,
			"byteLength":48480,
			"byteOffset":3005292,
			"target":34962
		},
		{
			"buffer":0,
			"byteLength":48480,
			"byteOffset":3053772,
			"target":34962
		},
		{
			"buffer":0,
			"byteLength":32320,
			"byteOffset":3102252,
			"target":34962
		},
		{
			"buffer":0,
			"byteLength":64640,
			"byteOffset":3134572,
			"target":34962
		},
		{
			"buffer":0,
			"byteLength":12120,
			"byteOffset":3199212,
			"target":34963
		},
		{
			"buffer":0,
			"byteLength":47280,
			"byteOffset":3211332,
			"target":34962
		},
		{
			"buffer":0,
			"byteLength":47280,
			"byteOffset":3258612,
			"target":34962
		},
		{
			"buffer":0,
			"byteLength":31520,
			"byteOffset":3305892,
			"target":34962
		},
		{
			"buffer":0,
			"byteLength":63040,
			"byteOffset":3337412,
			"target":34962
		},
		{
			"buffer":0,
			"byteLength":49152,
			"byteOffset":3400452,
			"target":34962
		},
		{
			"buffer":0,
			"byteLength":49152,
			"byteOffset":3449604,
			"target":34962
		},
		{
			"buffer":0,
			"byteLength":32768,
			"byteOffset":3498756,
			"target":34962
		},
		{
			"buffer":0,
			"byteLength":65536,
			"byteOffset":3531524,
			"target":34962
		},
		{
			"buffer":0,
			"byteLength":12288,
			"byteOffset":3597060,
			"target":34963
		},
		{
			"buffer":0,
			"byteLength":47280,
			"byteOffset":3609348,
			"target":34962
		},
		{
			"buffer":0,
			"byteLength":47280,
			"byteOffset":3656628,
			"target":34962
		},
		{
			"buffer":0,
			"byteLength":31520,
			"byteOffset":3703908,
			"target":34962
		},
		{
			"buffer":0,
			"byteLength":63040,
			"byteOffset":3735428,
			"target":34962
		},
		{
			"buffer":0,
			"byteLength":288,
			"byteOffset":3798468,
			"target":34962
		},
		{
			"buffer":0,
			"byteLength":288,
			"byteOffset":3798756,
			"target":34962
		},
		{
			"buffer":0,
			"byteLength":192,
			"byteOffset":3799044,
			"target":34962
		},
		{
			"buffer":0,
			"byteLength":108,
			"byteOffset":3799236,
			"target":34963
		},
		{
			"buffer":0,
			"byteLength":14592,
			"byteOffset":3799344,
			"target":34962
		},
		{
			"buffer":0,
			"byteLength":14592,
			"byteOffset":3813936,
			"target":34962
		},
		{
			"buffer":0,
			"byteLength":9728,
			"byteOffset":3828528,
			"target":34962
		},
		{
			"buffer":0,
			"byteLength":3516,
			"byteOffset":3838256,
			"target":34963
		},
		{
			"buffer":0,
			"byteLength":4992,
			"byteOffset":3841772,
			"target":34962
		},
		{
			"buffer":0,
			"byteLength":4992,
			"byteOffset":3846764,
			"target":34962
		},
		{
			"buffer":0,
			"byteLength":3328,
			"byteOffset":3851756,
			"target":34962
		},
		{
			"buffer":0,
			"byteLength":2196,
			"byteOffset":3855084,
			"target":34963
		},
		{
			"buffer":0,
			"byteLength":96,
			"byteOffset":3857280,
			"target":34962
		},
		{
			"buffer":0,
			"byteLength":96,
			"byteOffset":3857376,
			"target":34962
		},
		{
			"buffer":0,
			"byteLength":64,
			"byteOffset":3857472,
			"target":34962
		},
		{
			"buffer":0,
			"byteLength":128,
			"byteOffset":3857536,
			"target":34962
		},
		{
			"buffer":0,
			"byteLength":288,
			"byteOffset":3857664,
			"target":34962
		},
		{
			"buffer":0,
			"byteLength":288,
			"byteOffset":3857952,
			"target":34962
		},
		{
			"buffer":0,
			"byteLength":192,
			"byteOffset":3858240,
			"target":34962
		},
		{
			"buffer":0,
			"byteLength":108,
			"byteOffset":3858432,
			"target":34963
		},
		{
			"buffer":0,
			"byteLength":13824,
			"byteOffset":3858540,
			"target":34962
		},
		{
			"buffer":0,
			"byteLength":13824,
			"byteOffset":3872364,
			"target":34962
		},
		{
			"buffer":0,
			"byteLength":9216,
			"byteOffset":3886188,
			"target":34962
		},
		{
			"buffer":0,
			"byteLength":3348,
			"byteOffset":3895404,
			"target":34963
		},
		{
			"buffer":0,
			"byteLength":7464,
			"byteOffset":3898752,
			"target":34962
		},
		{
			"buffer":0,
			"byteLength":7464,
			"byteOffset":3906216,
			"target":34962
		},
		{
			"buffer":0,
			"byteLength":4976,
			"byteOffset":3913680,
			"target":34962
		},
		{
			"buffer":0,
			"byteLength":4512,
			"byteOffset":3918656,
			"target":34963
		},
		{
			"buffer":0,
			"byteLength":17280,
			"byteOffset":3923168,
			"target":34962
		},
		{
			"buffer":0,
			"byteLength":17280,
			"byteOffset":3940448,
			"target":34962
		},
		{
			"buffer":0,
			"byteLength":11520,
			"byteOffset":3957728,
			"target":34962
		},
		{
			"buffer":0,
			"byteLength":5280,
			"byteOffset":3969248,
			"target":34963
		},
		{
			"buffer":0,
			"byteLength":7464,
			"byteOffset":3974528,
			"target":34962
		},
		{
			"buffer":0,
			"byteLength":7464,
			"byteOffset":3981992,
			"target":34962
		},
		{
			"buffer":0,
			"byteLength":4976,
			"byteOffset":3989456,
			"target":34962
		},
		{
			"buffer":0,
			"byteLength":17280,
			"byteOffset":3994432,
			"target":34962
		},
		{
			"buffer":0,
			"byteLength":17280,
			"byteOffset":4011712,
			"target":34962
		},
		{
			"buffer":0,
			"byteLength":11520,
			"byteOffset":4028992,
			"target":34962
		},
		{
			"buffer":0,
			"byteLength":5280,
			"byteOffset":4040512,
			"target":34963
		},
		{
			"buffer":0,
			"byteLength":8928,
			"byteOffset":4045792,
			"target":34962
		},
		{
			"buffer":0,
			"byteLength":8928,
			"byteOffset":4054720,
			"target":34962
		},
		{
			"buffer":0,
			"byteLength":5952,
			"byteOffset":4063648,
			"target":34962
		},
		{
			"buffer":0,
			"byteLength":8928,
			"byteOffset":4069600,
			"target":34962
		},
		{
			"buffer":0,
			"byteLength":8928,
			"byteOffset":4078528,
			"target":34962
		},
		{
			"buffer":0,
			"byteLength":5952,
			"byteOffset":4087456,
			"target":34962
		},
		{
			"buffer":0,
			"byteLength":8928,
			"byteOffset":4093408,
			"target":34962
		},
		{
			"buffer":0,
			"byteLength":8928,
			"byteOffset":4102336,
			"target":34962
		},
		{
			"buffer":0,
			"byteLength":5952,
			"byteOffset":4111264,
			"target":34962
		},
		{
			"buffer":0,
			"byteLength":8928,
			"byteOffset":4117216,
			"target":34962
		},
		{
			"buffer":0,
			"byteLength":8928,
			"byteOffset":4126144,
			"target":34962
		},
		{
			"buffer":0,
			"byteLength":5952,
			"byteOffset":4135072,
			"target":34962
		},
		{
			"buffer":0,
			"byteLength":8928,
			"byteOffset":4141024,
			"target":34962
		},
		{
			"buffer":0,
			"byteLength":8928,
			"byteOffset":4149952,
			"target":34962
		},
		{
			"buffer":0,
			"byteLength":5952,
			"byteOffset":4158880,
			"target":34962
		},
		{
			"buffer":0,
			"byteLength":8928,
			"byteOffset":4164832,
			"target":34962
		},
		{
			"buffer":0,
			"byteLength":8928,
			"byteOffset":4173760,
			"target":34962
		},
		{
			"buffer":0,
			"byteLength":5952,
			"byteOffset":4182688,
			"target":34962
		},
		{
			"buffer":0,
			"byteLength":8928,
			"byteOffset":4188640,
			"target":34962
		},
		{
			"buffer":0,
			"byteLength":8928,
			"byteOffset":4197568,
			"target":34962
		},
		{
			"buffer":0,
			"byteLength":5952,
			"byteOffset":4206496,
			"target":34962
		},
		{
			"buffer":0,
			"byteLength":8928,
			"byteOffset":4212448,
			"target":34962
		},
		{
			"buffer":0,
			"byteLength":8928,
			"byteOffset":4221376,
			"target":34962
		},
		{
			"buffer":0,
			"byteLength":5952,
			"byteOffset":4230304,
			"target":34962
		},
		{
			"buffer":0,
			"byteLength":8928,
			"byteOffset":4236256,
			"target":34962
		},
		{
			"buffer":0,
			"byteLength":8928,
			"byteOffset":4245184,
			"target":34962
		},
		{
			"buffer":0,
			"byteLength":5952,
			"byteOffset":4254112,
			"target":34962
		},
		{
			"buffer":0,
			"byteLength":5976,
			"byteOffset":4260064,
			"target":34962
		},
		{
			"buffer":0,
			"byteLength":5976,
			"byteOffset":4266040,
			"target":34962
		},
		{
			"buffer":0,
			"byteLength":3984,
			"byteOffset":4272016,
			"target":34962
		},
		{
			"buffer":0,
			"byteLength":1440,
			"byteOffset":4276000,
			"target":34963
		},
		{
			"buffer":0,
			"byteLength":11952,
			"byteOffset":4277440,
			"target":34962
		},
		{
			"buffer":0,
			"byteLength":11952,
			"byteOffset":4289392,
			"target":34962
		},
		{
			"buffer":0,
			"byteLength":7968,
			"byteOffset":4301344,
			"target":34962
		},
		{
			"buffer":0,
			"byteLength":2880,
			"byteOffset":4309312,
			"target":34963
		},
		{
			"buffer":0,
			"byteLength":5976,
			"byteOffset":4312192,
			"target":34962
		},
		{
			"buffer":0,
			"byteLength":5976,
			"byteOffset":4318168,
			"target":34962
		},
		{
			"buffer":0,
			"byteLength":3984,
			"byteOffset":4324144,
			"target":34962
		},
		{
			"buffer":0,
			"byteLength":1440,
			"byteOffset":4328128,
			"target":34963
		},
		{
			"buffer":0,
			"byteLength":5976,
			"byteOffset":4329568,
			"target":34962
		},
		{
			"buffer":0,
			"byteLength":5976,
			"byteOffset":4335544,
			"target":34962
		},
		{
			"buffer":0,
			"byteLength":3984,
			"byteOffset":4341520,
			"target":34962
		},
		{
			"buffer":0,
			"byteLength":1440,
			"byteOffset":4345504,
			"target":34963
		},
		{
			"buffer":0,
			"byteLength":5976,
			"byteOffset":4346944,
			"target":34962
		},
		{
			"buffer":0,
			"byteLength":5976,
			"byteOffset":4352920,
			"target":34962
		},
		{
			"buffer":0,
			"byteLength":3984,
			"byteOffset":4358896,
			"target":34962
		},
		{
			"buffer":0,
			"byteLength":1992,
			"byteOffset":4362880,
			"target":34962
		},
		{
			"buffer":0,
			"byteLength":1992,
			"byteOffset":4364872,
			"target":34962
		},
		{
			"buffer":0,
			"byteLength":1328,
			"byteOffset":4366864,
			"target":34962
		},
		{
			"buffer":0,
			"byteLength":480,
			"byteOffset":4368192,
			"target":34963
		},
		{
			"buffer":0,
			"byteLength":1992,
			"byteOffset":4368672,
			"target":34962
		},
		{
			"buffer":0,
			"byteLength":1992,
			"byteOffset":4370664,
			"target":34962
		},
		{
			"buffer":0,
			"byteLength":1328,
			"byteOffset":4372656,
			"target":34962
		},
		{
			"buffer":0,
			"byteLength":1992,
			"byteOffset":4373984,
			"target":34962
		},
		{
			"buffer":0,
			"byteLength":1992,
			"byteOffset":4375976,
			"target":34962
		},
		{
			"buffer":0,
			"byteLength":1328,
			"byteOffset":4377968,
			"target":34962
		},
		{
			"buffer":0,
			"byteLength":1992,
			"byteOffset":4379296,
			"target":34962
		},
		{
			"buffer":0,
			"byteLength":1992,
			"byteOffset":4381288,
			"target":34962
		},
		{
			"buffer":0,
			"byteLength":1328,
			"byteOffset":4383280,
			"target":34962
		},
		{
			"buffer":0,
			"byteLength":5976,
			"byteOffset":4384608,
			"target":34962
		},
		{
			"buffer":0,
			"byteLength":5976,
			"byteOffset":4390584,
			"target":34962
		},
		{
			"buffer":0,
			"byteLength":3984,
			"byteOffset":4396560,
			"target":34962
		},
		{
			"buffer":0,
			"byteLength":1440,
			"byteOffset":4400544,
			"target":34963
		},
		{
			"buffer":0,
			"byteLength":5976,
			"byteOffset":4401984,
			"target":34962
		},
		{
			"buffer":0,
			"byteLength":5976,
			"byteOffset":4407960,
			"target":34962
		},
		{
			"buffer":0,
			"byteLength":3984,
			"byteOffset":4413936,
			"target":34962
		},
		{
			"buffer":0,
			"byteLength":1440,
			"byteOffset":4417920,
			"target":34963
		},
		{
			"buffer":0,
			"byteLength":5976,
			"byteOffset":4419360,
			"target":34962
		},
		{
			"buffer":0,
			"byteLength":5976,
			"byteOffset":4425336,
			"target":34962
		},
		{
			"buffer":0,
			"byteLength":3984,
			"byteOffset":4431312,
			"target":34962
		},
		{
			"buffer":0,
			"byteLength":1440,
			"byteOffset":4435296,
			"target":34963
		},
		{
			"buffer":0,
			"byteLength":5976,
			"byteOffset":4436736,
			"target":34962
		},
		{
			"buffer":0,
			"byteLength":5976,
			"byteOffset":4442712,
			"target":34962
		},
		{
			"buffer":0,
			"byteLength":3984,
			"byteOffset":4448688,
			"target":34962
		},
		{
			"buffer":0,
			"byteLength":1992,
			"byteOffset":4452672,
			"target":34962
		},
		{
			"buffer":0,
			"byteLength":1992,
			"byteOffset":4454664,
			"target":34962
		},
		{
			"buffer":0,
			"byteLength":1328,
			"byteOffset":4456656,
			"target":34962
		},
		{
			"buffer":0,
			"byteLength":1992,
			"byteOffset":4457984,
			"target":34962
		},
		{
			"buffer":0,
			"byteLength":1992,
			"byteOffset":4459976,
			"target":34962
		},
		{
			"buffer":0,
			"byteLength":1328,
			"byteOffset":4461968,
			"target":34962
		},
		{
			"buffer":0,
			"byteLength":1992,
			"byteOffset":4463296,
			"target":34962
		},
		{
			"buffer":0,
			"byteLength":1992,
			"byteOffset":4465288,
			"target":34962
		},
		{
			"buffer":0,
			"byteLength":1328,
			"byteOffset":4467280,
			"target":34962
		},
		{
			"buffer":0,
			"byteLength":1992,
			"byteOffset":4468608,
			"target":34962
		},
		{
			"buffer":0,
			"byteLength":1992,
			"byteOffset":4470600,
			"target":34962
		},
		{
			"buffer":0,
			"byteLength":1328,
			"byteOffset":4472592,
			"target":34962
		},
		{
			"buffer":0,
			"byteLength":11064,
			"byteOffset":4473920,
			"target":34962
		},
		{
			"buffer":0,
			"byteLength":11064,
			"byteOffset":4484984,
			"target":34962
		},
		{
			"buffer":0,
			"byteLength":7376,
			"byteOffset":4496048,
			"target":34962
		},
		{
			"buffer":0,
			"byteLength":10080,
			"byteOffset":4503424,
			"target":34963
		},
		{
			"buffer":0,
			"byteLength":6000,
			"byteOffset":4513504,
			"target":34962
		},
		{
			"buffer":0,
			"byteLength":6000,
			"byteOffset":4519504,
			"target":34962
		},
		{
			"buffer":0,
			"byteLength":4000,
			"byteOffset":4525504,
			"target":34962
		},
		{
			"buffer":0,
			"byteLength":4368,
			"byteOffset":4529504,
			"target":34963
		},
		{
			"buffer":0,
			"byteLength":8736,
			"byteOffset":4533872,
			"target":34962
		},
		{
			"buffer":0,
			"byteLength":8736,
			"byteOffset":4542608,
			"target":34962
		},
		{
			"buffer":0,
			"byteLength":5824,
			"byteOffset":4551344,
			"target":34962
		},
		{
			"buffer":0,
			"byteLength":8856,
			"byteOffset":4557168,
			"target":34963
		},
		{
			"buffer":0,
			"byteLength":12588,
			"byteOffset":4566024,
			"target":34962
		},
		{
			"buffer":0,
			"byteLength":12588,
			"byteOffset":4578612,
			"target":34962
		},
		{
			"buffer":0,
			"byteLength":8392,
			"byteOffset":4591200,
			"target":34962
		},
		{
			"buffer":0,
			"byteLength":16784,
			"byteOffset":4599592,
			"target":34962
		},
		{
			"buffer":0,
			"byteLength":7440,
			"byteOffset":4616376,
			"target":34963
		},
		{
			"buffer":0,
			"byteLength":17304,
			"byteOffset":4623816,
			"target":34962
		},
		{
			"buffer":0,
			"byteLength":17304,
			"byteOffset":4641120,
			"target":34962
		},
		{
			"buffer":0,
			"byteLength":11536,
			"byteOffset":4658424,
			"target":34962
		},
		{
			"buffer":0,
			"byteLength":14424,
			"byteOffset":4669960,
			"target":34963
		},
		{
			"buffer":0,
			"byteLength":8256,
			"byteOffset":4684384,
			"target":34962
		},
		{
			"buffer":0,
			"byteLength":8256,
			"byteOffset":4692640,
			"target":34962
		},
		{
			"buffer":0,
			"byteLength":5504,
			"byteOffset":4700896,
			"target":34962
		},
		{
			"buffer":0,
			"byteLength":5154,
			"byteOffset":4706400,
			"target":34963
		},
		{
			"buffer":0,
			"byteLength":11064,
			"byteOffset":4711556,
			"target":34962
		},
		{
			"buffer":0,
			"byteLength":11064,
			"byteOffset":4722620,
			"target":34962
		},
		{
			"buffer":0,
			"byteLength":7376,
			"byteOffset":4733684,
			"target":34962
		},
		{
			"buffer":0,
			"byteLength":6000,
			"byteOffset":4741060,
			"target":34962
		},
		{
			"buffer":0,
			"byteLength":6000,
			"byteOffset":4747060,
			"target":34962
		},
		{
			"buffer":0,
			"byteLength":4000,
			"byteOffset":4753060,
			"target":34962
		},
		{
			"buffer":0,
			"byteLength":4368,
			"byteOffset":4757060,
			"target":34963
		}
	],
	"buffers":[
		{
			"byteLength":4761428,
			"uri":"terrainFinished-a5e802fbb65c2b710c63ee151247b0e0.bin"
		}
	]
}
