{
	"asset":{
		"generator":"Khronos glTF Blender I/O v4.0.44",
		"version":"2.0"
	},
	"extensionsUsed":[
		"KHR_lights_punctual"
	],
	"extensionsRequired":[
		"KHR_lights_punctual"
	],
	"extensions":{
		"KHR_lights_punctual":{
			"lights":[
				{
					"color":[
						1,
						1,
						1
					],
					"intensity":54351.41306588226,
					"type":"point",
					"name":"Light"
				}
			]
		}
	},
	"scene":0,
	"scenes":[
		{
			"name":"Scene",
			"nodes":[
				20,
				21,
				22,
				23,
				24
			]
		}
	],
	"nodes":[
		{
			"name":"head",
			"translation":[
				-2.0437825043462254e-10,
				0.5358198881149292,
				1.1027623258996755e-11
			]
		},
		{
			"name":"lower-arm.l",
			"rotation":[
				0.08781702816486359,
				0.03729651868343353,
				-0.16154924035072327,
				0.9822418093681335
			],
			"scale":[
				0.9999999403953552,
				1,
				1
			],
			"translation":[
				4.470348358154297e-08,
				0.36212843656539917,
				-3.073364496231079e-08
			]
		},
		{
			"children":[
				1
			],
			"name":"upper-arm.l",
			"rotation":[
				-0.33690598607063293,
				0.008437116630375385,
				-0.2734047770500183,
				0.9009289741516113
			],
			"scale":[
				0.9999998807907104,
				1.0000001192092896,
				0.9999999403953552
			],
			"translation":[
				3.725290298461914e-09,
				0.27304917573928833,
				-1.0023359209299088e-07
			]
		},
		{
			"children":[
				2
			],
			"name":"collarbone.l",
			"rotation":[
				-0.7385910153388977,
				0.06722573935985565,
				0.03662973269820213,
				0.6697927713394165
			],
			"scale":[
				1,
				0.9999999403953552,
				1
			],
			"translation":[
				-2.0437825043462254e-10,
				0.5358198881149292,
				1.1027623258996755e-11
			]
		},
		{
			"name":"foot.l",
			"rotation":[
				-0.6085445880889893,
				-0.0035406500101089478,
				0.006094902288168669,
				0.7934883832931519
			],
			"scale":[
				1,
				1,
				0.9999999403953552
			],
			"translation":[
				-1.211034938997102e-09,
				0.5192553997039795,
				-1.2278178473934531e-11
			]
		},
		{
			"children":[
				4
			],
			"name":"lower-leg.l",
			"rotation":[
				0.028693100437521935,
				-9.931649401551113e-05,
				0.0018124657217413187,
				0.9995866417884827
			],
			"scale":[
				1.000000238418579,
				1,
				1
			],
			"translation":[
				-1.1722596227059512e-09,
				0.4465807378292084,
				3.283275873400271e-09
			]
		},
		{
			"children":[
				5
			],
			"name":"upper-leg.l",
			"rotation":[
				0.7068769335746765,
				0.02017347514629364,
				-0.7067567110061646,
				0.02032339945435524
			],
			"scale":[
				1.0000027418136597,
				1,
				1
			],
			"translation":[
				-0.019264860078692436,
				-0.027239203453063965,
				-0.15264096856117249
			]
		},
		{
			"name":"lower-arm.r",
			"rotation":[
				0.0878169983625412,
				-0.037296492606401443,
				0.1615491658449173,
				0.9822418689727783
			],
			"translation":[
				-2.2351741790771484e-08,
				0.36212825775146484,
				3.632158041000366e-08
			]
		},
		{
			"children":[
				7
			],
			"name":"upper-arm.r",
			"rotation":[
				-0.33690595626831055,
				-0.0084371417760849,
				0.2734048664569855,
				0.9009289741516113
			],
			"scale":[
				1,
				1,
				0.9999998807907104
			],
			"translation":[
				-1.4901161193847656e-08,
				0.27304914593696594,
				-7.05476850271225e-08
			]
		},
		{
			"children":[
				8
			],
			"name":"collarbone.r",
			"rotation":[
				-0.036630112677812576,
				0.6697927117347717,
				0.7385910153388977,
				0.0672260969877243
			],
			"scale":[
				0.9999999403953552,
				1.000000238418579,
				1
			],
			"translation":[
				-2.0437825043462254e-10,
				0.5358198881149292,
				1.1027623258996755e-11
			]
		},
		{
			"name":"foot.r",
			"rotation":[
				-0.6085445880889893,
				0.0035406500101089478,
				-0.006094902753829956,
				0.7934883832931519
			],
			"scale":[
				1,
				1,
				0.9999999403953552
			],
			"translation":[
				1.196633014899362e-09,
				0.5192554593086243,
				-1.318767317570746e-11
			]
		},
		{
			"children":[
				10
			],
			"name":"lower-leg.r",
			"rotation":[
				0.028693098574876785,
				9.934252011589706e-05,
				-0.0018124687485396862,
				0.9995866417884827
			],
			"scale":[
				1.000000238418579,
				1,
				1
			],
			"translation":[
				1.1639578190170141e-08,
				0.44658076763153076,
				3.4906406654044986e-09
			]
		},
		{
			"children":[
				11
			],
			"name":"upper-leg.r",
			"rotation":[
				0.7067570686340332,
				0.020323388278484344,
				-0.7068765759468079,
				0.02017337642610073
			],
			"scale":[
				1.0000027418136597,
				1,
				1
			],
			"translation":[
				-0.01926501840353012,
				-0.027239203453063965,
				0.1526409387588501
			]
		},
		{
			"children":[
				0,
				3,
				6,
				9,
				12
			],
			"name":"body",
			"rotation":[
				0,
				0.7071069478988647,
				0,
				0.7071065902709961
			],
			"scale":[
				1,
				0.9999999403953552,
				1
			]
		},
		{
			"name":"iklegpole.l",
			"rotation":[
				-0.007434191647917032,
				-0.7070677280426025,
				0.7070676684379578,
				0.00743437372148037
			],
			"translation":[
				-0.15254414081573486,
				-0.47308725118637085,
				-0.20092783868312836
			]
		},
		{
			"name":"iklegtarget.l",
			"rotation":[
				0.005888774059712887,
				-0.707082211971283,
				-0.7070822715759277,
				0.005888774059712887
			],
			"translation":[
				-0.15055210888385773,
				-0.9923387765884399,
				-0.0062406850047409534
			]
		},
		{
			"name":"iklegpole.r",
			"rotation":[
				-0.007434191647917032,
				0.7070677280426025,
				-0.7070676684379578,
				0.00743437372148037
			],
			"translation":[
				0.15254414081573486,
				-0.47308725118637085,
				-0.20092783868312836
			]
		},
		{
			"name":"iklegtarget.r",
			"rotation":[
				0.005888774059712887,
				0.707082211971283,
				0.7070822715759277,
				0.005888774059712887
			],
			"translation":[
				0.15055210888385773,
				-0.9923387765884399,
				-0.0062406850047409534
			]
		},
		{
			"mesh":0,
			"name":"Body",
			"skin":0
		},
		{
			"mesh":1,
			"name":"Fur",
			"skin":0
		},
		{
			"children":[
				18,
				19,
				13,
				14,
				15,
				16,
				17
			],
			"name":"Armature",
			"translation":[
				0.00039262091740965843,
				1.0519397258758545,
				0.006240726914256811
			]
		},
		{
			"extensions":{
				"KHR_lights_punctual":{
					"light":0
				}
			},
			"name":"Light",
			"rotation":[
				-0.04091878607869148,
				-0.8840373754501343,
				-0.4427904486656189,
				0.14401453733444214
			],
			"translation":[
				-1.0054540634155273,
				5.903859615325928,
				-4.076245307922363
			]
		},
		{
			"camera":0,
			"name":"Camera",
			"rotation":[
				-0.08438932150602341,
				0.9047970175743103,
				0.21255731582641602,
				0.35922175645828247
			],
			"translation":[
				6.925790309906006,
				4.958306789398193,
				-7.358892440795898
			]
		},
		{
			"name":"Side Reference",
			"rotation":[
				0.7071068286895752,
				0,
				0,
				0.7071068286895752
			],
			"scale":[
				0.9303087592124939,
				0.9303087592124939,
				0.9303087592124939
			],
			"translation":[
				0.023824522271752357,
				0.9047263264656067,
				4.883537292480469
			]
		},
		{
			"name":"Front Reference",
			"rotation":[
				0.5007449388504028,
				0.5007449984550476,
				-0.4992539882659912,
				0.49925392866134644
			],
			"scale":[
				0.9303087592124939,
				0.9303087592124939,
				0.9303087592124939
			],
			"translation":[
				-5.70799446105957,
				0.9047263264656067,
				-1.369910478591919
			]
		}
	],
	"cameras":[
		{
			"name":"Camera",
			"perspective":{
				"aspectRatio":1.7777777777777777,
				"yfov":0.39959648408210363,
				"zfar":100,
				"znear":0.10000000149011612
			},
			"type":"perspective"
		}
	],
	"animations":[
		{
			"channels":[
				{
					"sampler":0,
					"target":{
						"node":13,
						"path":"translation"
					}
				},
				{
					"sampler":1,
					"target":{
						"node":13,
						"path":"rotation"
					}
				},
				{
					"sampler":2,
					"target":{
						"node":13,
						"path":"scale"
					}
				},
				{
					"sampler":3,
					"target":{
						"node":0,
						"path":"translation"
					}
				},
				{
					"sampler":4,
					"target":{
						"node":0,
						"path":"rotation"
					}
				},
				{
					"sampler":5,
					"target":{
						"node":0,
						"path":"scale"
					}
				},
				{
					"sampler":6,
					"target":{
						"node":3,
						"path":"translation"
					}
				},
				{
					"sampler":7,
					"target":{
						"node":3,
						"path":"rotation"
					}
				},
				{
					"sampler":8,
					"target":{
						"node":3,
						"path":"scale"
					}
				},
				{
					"sampler":9,
					"target":{
						"node":2,
						"path":"translation"
					}
				},
				{
					"sampler":10,
					"target":{
						"node":2,
						"path":"rotation"
					}
				},
				{
					"sampler":11,
					"target":{
						"node":2,
						"path":"scale"
					}
				},
				{
					"sampler":12,
					"target":{
						"node":1,
						"path":"translation"
					}
				},
				{
					"sampler":13,
					"target":{
						"node":1,
						"path":"rotation"
					}
				},
				{
					"sampler":14,
					"target":{
						"node":1,
						"path":"scale"
					}
				},
				{
					"sampler":15,
					"target":{
						"node":6,
						"path":"translation"
					}
				},
				{
					"sampler":16,
					"target":{
						"node":6,
						"path":"rotation"
					}
				},
				{
					"sampler":17,
					"target":{
						"node":6,
						"path":"scale"
					}
				},
				{
					"sampler":18,
					"target":{
						"node":5,
						"path":"translation"
					}
				},
				{
					"sampler":19,
					"target":{
						"node":5,
						"path":"rotation"
					}
				},
				{
					"sampler":20,
					"target":{
						"node":5,
						"path":"scale"
					}
				},
				{
					"sampler":21,
					"target":{
						"node":4,
						"path":"translation"
					}
				},
				{
					"sampler":22,
					"target":{
						"node":4,
						"path":"rotation"
					}
				},
				{
					"sampler":23,
					"target":{
						"node":4,
						"path":"scale"
					}
				},
				{
					"sampler":24,
					"target":{
						"node":9,
						"path":"translation"
					}
				},
				{
					"sampler":25,
					"target":{
						"node":9,
						"path":"rotation"
					}
				},
				{
					"sampler":26,
					"target":{
						"node":9,
						"path":"scale"
					}
				},
				{
					"sampler":27,
					"target":{
						"node":8,
						"path":"translation"
					}
				},
				{
					"sampler":28,
					"target":{
						"node":8,
						"path":"rotation"
					}
				},
				{
					"sampler":29,
					"target":{
						"node":8,
						"path":"scale"
					}
				},
				{
					"sampler":30,
					"target":{
						"node":7,
						"path":"translation"
					}
				},
				{
					"sampler":31,
					"target":{
						"node":7,
						"path":"rotation"
					}
				},
				{
					"sampler":32,
					"target":{
						"node":7,
						"path":"scale"
					}
				},
				{
					"sampler":33,
					"target":{
						"node":12,
						"path":"translation"
					}
				},
				{
					"sampler":34,
					"target":{
						"node":12,
						"path":"rotation"
					}
				},
				{
					"sampler":35,
					"target":{
						"node":12,
						"path":"scale"
					}
				},
				{
					"sampler":36,
					"target":{
						"node":11,
						"path":"translation"
					}
				},
				{
					"sampler":37,
					"target":{
						"node":11,
						"path":"rotation"
					}
				},
				{
					"sampler":38,
					"target":{
						"node":11,
						"path":"scale"
					}
				},
				{
					"sampler":39,
					"target":{
						"node":10,
						"path":"translation"
					}
				},
				{
					"sampler":40,
					"target":{
						"node":10,
						"path":"rotation"
					}
				},
				{
					"sampler":41,
					"target":{
						"node":10,
						"path":"scale"
					}
				},
				{
					"sampler":42,
					"target":{
						"node":14,
						"path":"translation"
					}
				},
				{
					"sampler":43,
					"target":{
						"node":14,
						"path":"rotation"
					}
				},
				{
					"sampler":44,
					"target":{
						"node":14,
						"path":"scale"
					}
				},
				{
					"sampler":45,
					"target":{
						"node":15,
						"path":"translation"
					}
				},
				{
					"sampler":46,
					"target":{
						"node":15,
						"path":"rotation"
					}
				},
				{
					"sampler":47,
					"target":{
						"node":15,
						"path":"scale"
					}
				},
				{
					"sampler":48,
					"target":{
						"node":16,
						"path":"translation"
					}
				},
				{
					"sampler":49,
					"target":{
						"node":16,
						"path":"rotation"
					}
				},
				{
					"sampler":50,
					"target":{
						"node":16,
						"path":"scale"
					}
				},
				{
					"sampler":51,
					"target":{
						"node":17,
						"path":"translation"
					}
				},
				{
					"sampler":52,
					"target":{
						"node":17,
						"path":"rotation"
					}
				},
				{
					"sampler":53,
					"target":{
						"node":17,
						"path":"scale"
					}
				}
			],
			"name":"attack_loop",
			"samplers":[
				{
					"input":13,
					"interpolation":"LINEAR",
					"output":14
				},
				{
					"input":13,
					"interpolation":"LINEAR",
					"output":15
				},
				{
					"input":16,
					"interpolation":"STEP",
					"output":17
				},
				{
					"input":16,
					"interpolation":"LINEAR",
					"output":18
				},
				{
					"input":13,
					"interpolation":"LINEAR",
					"output":19
				},
				{
					"input":16,
					"interpolation":"LINEAR",
					"output":20
				},
				{
					"input":16,
					"interpolation":"LINEAR",
					"output":21
				},
				{
					"input":16,
					"interpolation":"LINEAR",
					"output":22
				},
				{
					"input":16,
					"interpolation":"STEP",
					"output":23
				},
				{
					"input":16,
					"interpolation":"LINEAR",
					"output":24
				},
				{
					"input":13,
					"interpolation":"LINEAR",
					"output":25
				},
				{
					"input":16,
					"interpolation":"LINEAR",
					"output":26
				},
				{
					"input":16,
					"interpolation":"LINEAR",
					"output":27
				},
				{
					"input":13,
					"interpolation":"LINEAR",
					"output":28
				},
				{
					"input":16,
					"interpolation":"LINEAR",
					"output":29
				},
				{
					"input":16,
					"interpolation":"LINEAR",
					"output":30
				},
				{
					"input":13,
					"interpolation":"LINEAR",
					"output":31
				},
				{
					"input":16,
					"interpolation":"LINEAR",
					"output":32
				},
				{
					"input":16,
					"interpolation":"LINEAR",
					"output":33
				},
				{
					"input":13,
					"interpolation":"LINEAR",
					"output":34
				},
				{
					"input":16,
					"interpolation":"LINEAR",
					"output":35
				},
				{
					"input":16,
					"interpolation":"LINEAR",
					"output":36
				},
				{
					"input":13,
					"interpolation":"LINEAR",
					"output":37
				},
				{
					"input":16,
					"interpolation":"LINEAR",
					"output":38
				},
				{
					"input":16,
					"interpolation":"LINEAR",
					"output":39
				},
				{
					"input":16,
					"interpolation":"LINEAR",
					"output":40
				},
				{
					"input":16,
					"interpolation":"STEP",
					"output":41
				},
				{
					"input":16,
					"interpolation":"LINEAR",
					"output":42
				},
				{
					"input":13,
					"interpolation":"LINEAR",
					"output":43
				},
				{
					"input":16,
					"interpolation":"LINEAR",
					"output":44
				},
				{
					"input":16,
					"interpolation":"LINEAR",
					"output":45
				},
				{
					"input":13,
					"interpolation":"LINEAR",
					"output":46
				},
				{
					"input":16,
					"interpolation":"LINEAR",
					"output":47
				},
				{
					"input":16,
					"interpolation":"LINEAR",
					"output":48
				},
				{
					"input":13,
					"interpolation":"LINEAR",
					"output":49
				},
				{
					"input":16,
					"interpolation":"LINEAR",
					"output":50
				},
				{
					"input":16,
					"interpolation":"LINEAR",
					"output":51
				},
				{
					"input":13,
					"interpolation":"LINEAR",
					"output":52
				},
				{
					"input":16,
					"interpolation":"LINEAR",
					"output":53
				},
				{
					"input":16,
					"interpolation":"LINEAR",
					"output":54
				},
				{
					"input":13,
					"interpolation":"LINEAR",
					"output":55
				},
				{
					"input":16,
					"interpolation":"STEP",
					"output":56
				},
				{
					"input":13,
					"interpolation":"LINEAR",
					"output":57
				},
				{
					"input":16,
					"interpolation":"STEP",
					"output":58
				},
				{
					"input":16,
					"interpolation":"STEP",
					"output":59
				},
				{
					"input":13,
					"interpolation":"LINEAR",
					"output":60
				},
				{
					"input":13,
					"interpolation":"LINEAR",
					"output":61
				},
				{
					"input":16,
					"interpolation":"STEP",
					"output":62
				},
				{
					"input":13,
					"interpolation":"LINEAR",
					"output":63
				},
				{
					"input":16,
					"interpolation":"STEP",
					"output":64
				},
				{
					"input":16,
					"interpolation":"STEP",
					"output":65
				},
				{
					"input":13,
					"interpolation":"LINEAR",
					"output":66
				},
				{
					"input":16,
					"interpolation":"STEP",
					"output":67
				},
				{
					"input":16,
					"interpolation":"STEP",
					"output":68
				}
			]
		},
		{
			"channels":[
				{
					"sampler":0,
					"target":{
						"node":13,
						"path":"translation"
					}
				},
				{
					"sampler":1,
					"target":{
						"node":13,
						"path":"rotation"
					}
				},
				{
					"sampler":2,
					"target":{
						"node":13,
						"path":"scale"
					}
				},
				{
					"sampler":3,
					"target":{
						"node":0,
						"path":"translation"
					}
				},
				{
					"sampler":4,
					"target":{
						"node":0,
						"path":"rotation"
					}
				},
				{
					"sampler":5,
					"target":{
						"node":0,
						"path":"scale"
					}
				},
				{
					"sampler":6,
					"target":{
						"node":3,
						"path":"translation"
					}
				},
				{
					"sampler":7,
					"target":{
						"node":3,
						"path":"rotation"
					}
				},
				{
					"sampler":8,
					"target":{
						"node":3,
						"path":"scale"
					}
				},
				{
					"sampler":9,
					"target":{
						"node":2,
						"path":"translation"
					}
				},
				{
					"sampler":10,
					"target":{
						"node":2,
						"path":"rotation"
					}
				},
				{
					"sampler":11,
					"target":{
						"node":2,
						"path":"scale"
					}
				},
				{
					"sampler":12,
					"target":{
						"node":1,
						"path":"translation"
					}
				},
				{
					"sampler":13,
					"target":{
						"node":1,
						"path":"rotation"
					}
				},
				{
					"sampler":14,
					"target":{
						"node":1,
						"path":"scale"
					}
				},
				{
					"sampler":15,
					"target":{
						"node":6,
						"path":"translation"
					}
				},
				{
					"sampler":16,
					"target":{
						"node":6,
						"path":"rotation"
					}
				},
				{
					"sampler":17,
					"target":{
						"node":6,
						"path":"scale"
					}
				},
				{
					"sampler":18,
					"target":{
						"node":5,
						"path":"translation"
					}
				},
				{
					"sampler":19,
					"target":{
						"node":5,
						"path":"rotation"
					}
				},
				{
					"sampler":20,
					"target":{
						"node":5,
						"path":"scale"
					}
				},
				{
					"sampler":21,
					"target":{
						"node":4,
						"path":"translation"
					}
				},
				{
					"sampler":22,
					"target":{
						"node":4,
						"path":"rotation"
					}
				},
				{
					"sampler":23,
					"target":{
						"node":4,
						"path":"scale"
					}
				},
				{
					"sampler":24,
					"target":{
						"node":9,
						"path":"translation"
					}
				},
				{
					"sampler":25,
					"target":{
						"node":9,
						"path":"rotation"
					}
				},
				{
					"sampler":26,
					"target":{
						"node":9,
						"path":"scale"
					}
				},
				{
					"sampler":27,
					"target":{
						"node":8,
						"path":"translation"
					}
				},
				{
					"sampler":28,
					"target":{
						"node":8,
						"path":"rotation"
					}
				},
				{
					"sampler":29,
					"target":{
						"node":8,
						"path":"scale"
					}
				},
				{
					"sampler":30,
					"target":{
						"node":7,
						"path":"translation"
					}
				},
				{
					"sampler":31,
					"target":{
						"node":7,
						"path":"rotation"
					}
				},
				{
					"sampler":32,
					"target":{
						"node":7,
						"path":"scale"
					}
				},
				{
					"sampler":33,
					"target":{
						"node":12,
						"path":"translation"
					}
				},
				{
					"sampler":34,
					"target":{
						"node":12,
						"path":"rotation"
					}
				},
				{
					"sampler":35,
					"target":{
						"node":12,
						"path":"scale"
					}
				},
				{
					"sampler":36,
					"target":{
						"node":11,
						"path":"translation"
					}
				},
				{
					"sampler":37,
					"target":{
						"node":11,
						"path":"rotation"
					}
				},
				{
					"sampler":38,
					"target":{
						"node":11,
						"path":"scale"
					}
				},
				{
					"sampler":39,
					"target":{
						"node":10,
						"path":"translation"
					}
				},
				{
					"sampler":40,
					"target":{
						"node":10,
						"path":"rotation"
					}
				},
				{
					"sampler":41,
					"target":{
						"node":10,
						"path":"scale"
					}
				},
				{
					"sampler":42,
					"target":{
						"node":14,
						"path":"translation"
					}
				},
				{
					"sampler":43,
					"target":{
						"node":14,
						"path":"rotation"
					}
				},
				{
					"sampler":44,
					"target":{
						"node":14,
						"path":"scale"
					}
				},
				{
					"sampler":45,
					"target":{
						"node":15,
						"path":"translation"
					}
				},
				{
					"sampler":46,
					"target":{
						"node":15,
						"path":"rotation"
					}
				},
				{
					"sampler":47,
					"target":{
						"node":15,
						"path":"scale"
					}
				},
				{
					"sampler":48,
					"target":{
						"node":16,
						"path":"translation"
					}
				},
				{
					"sampler":49,
					"target":{
						"node":16,
						"path":"rotation"
					}
				},
				{
					"sampler":50,
					"target":{
						"node":16,
						"path":"scale"
					}
				},
				{
					"sampler":51,
					"target":{
						"node":17,
						"path":"translation"
					}
				},
				{
					"sampler":52,
					"target":{
						"node":17,
						"path":"rotation"
					}
				},
				{
					"sampler":53,
					"target":{
						"node":17,
						"path":"scale"
					}
				}
			],
			"name":"walk_loop",
			"samplers":[
				{
					"input":13,
					"interpolation":"LINEAR",
					"output":69
				},
				{
					"input":13,
					"interpolation":"LINEAR",
					"output":70
				},
				{
					"input":16,
					"interpolation":"STEP",
					"output":71
				},
				{
					"input":16,
					"interpolation":"STEP",
					"output":72
				},
				{
					"input":16,
					"interpolation":"STEP",
					"output":73
				},
				{
					"input":16,
					"interpolation":"STEP",
					"output":74
				},
				{
					"input":16,
					"interpolation":"STEP",
					"output":75
				},
				{
					"input":16,
					"interpolation":"STEP",
					"output":76
				},
				{
					"input":16,
					"interpolation":"STEP",
					"output":77
				},
				{
					"input":16,
					"interpolation":"LINEAR",
					"output":78
				},
				{
					"input":13,
					"interpolation":"LINEAR",
					"output":79
				},
				{
					"input":16,
					"interpolation":"STEP",
					"output":80
				},
				{
					"input":16,
					"interpolation":"LINEAR",
					"output":81
				},
				{
					"input":13,
					"interpolation":"LINEAR",
					"output":82
				},
				{
					"input":16,
					"interpolation":"STEP",
					"output":83
				},
				{
					"input":16,
					"interpolation":"STEP",
					"output":84
				},
				{
					"input":13,
					"interpolation":"LINEAR",
					"output":85
				},
				{
					"input":16,
					"interpolation":"STEP",
					"output":86
				},
				{
					"input":16,
					"interpolation":"STEP",
					"output":87
				},
				{
					"input":13,
					"interpolation":"LINEAR",
					"output":88
				},
				{
					"input":16,
					"interpolation":"STEP",
					"output":89
				},
				{
					"input":16,
					"interpolation":"STEP",
					"output":90
				},
				{
					"input":13,
					"interpolation":"LINEAR",
					"output":91
				},
				{
					"input":16,
					"interpolation":"STEP",
					"output":92
				},
				{
					"input":16,
					"interpolation":"STEP",
					"output":93
				},
				{
					"input":16,
					"interpolation":"STEP",
					"output":94
				},
				{
					"input":16,
					"interpolation":"STEP",
					"output":95
				},
				{
					"input":16,
					"interpolation":"LINEAR",
					"output":96
				},
				{
					"input":13,
					"interpolation":"LINEAR",
					"output":97
				},
				{
					"input":16,
					"interpolation":"STEP",
					"output":98
				},
				{
					"input":16,
					"interpolation":"LINEAR",
					"output":99
				},
				{
					"input":13,
					"interpolation":"LINEAR",
					"output":100
				},
				{
					"input":16,
					"interpolation":"STEP",
					"output":101
				},
				{
					"input":16,
					"interpolation":"STEP",
					"output":102
				},
				{
					"input":13,
					"interpolation":"LINEAR",
					"output":103
				},
				{
					"input":16,
					"interpolation":"STEP",
					"output":104
				},
				{
					"input":16,
					"interpolation":"STEP",
					"output":105
				},
				{
					"input":13,
					"interpolation":"LINEAR",
					"output":106
				},
				{
					"input":16,
					"interpolation":"STEP",
					"output":107
				},
				{
					"input":16,
					"interpolation":"STEP",
					"output":108
				},
				{
					"input":13,
					"interpolation":"LINEAR",
					"output":109
				},
				{
					"input":16,
					"interpolation":"STEP",
					"output":110
				},
				{
					"input":16,
					"interpolation":"STEP",
					"output":111
				},
				{
					"input":16,
					"interpolation":"STEP",
					"output":112
				},
				{
					"input":16,
					"interpolation":"STEP",
					"output":113
				},
				{
					"input":13,
					"interpolation":"LINEAR",
					"output":114
				},
				{
					"input":13,
					"interpolation":"LINEAR",
					"output":115
				},
				{
					"input":16,
					"interpolation":"STEP",
					"output":116
				},
				{
					"input":16,
					"interpolation":"STEP",
					"output":117
				},
				{
					"input":16,
					"interpolation":"STEP",
					"output":118
				},
				{
					"input":16,
					"interpolation":"STEP",
					"output":119
				},
				{
					"input":13,
					"interpolation":"LINEAR",
					"output":120
				},
				{
					"input":13,
					"interpolation":"LINEAR",
					"output":121
				},
				{
					"input":16,
					"interpolation":"STEP",
					"output":122
				}
			]
		}
	],
	"meshes":[
		{
			"name":"Cube.002",
			"primitives":[
				{
					"attributes":{
						"POSITION":0,
						"NORMAL":1,
						"TEXCOORD_0":2,
						"JOINTS_0":3,
						"WEIGHTS_0":4
					},
					"indices":5
				}
			]
		},
		{
			"name":"Cube.001",
			"primitives":[
				{
					"attributes":{
						"POSITION":7,
						"NORMAL":8,
						"TEXCOORD_0":9,
						"JOINTS_0":10,
						"WEIGHTS_0":11
					},
					"indices":12
				}
			]
		}
	],
	"skins":[
		{
			"inverseBindMatrices":6,
			"joints":[
				13,
				0,
				3,
				2,
				1,
				6,
				5,
				4,
				9,
				8,
				7,
				12,
				11,
				10,
				14,
				15,
				16,
				17
			],
			"name":"Armature"
		}
	],
	"accessors":[
		{
			"bufferView":0,
			"componentType":5126,
			"count":500,
			"max":[
				0.8740997314453125,
				1.9573324918746948,
				0.23729483783245087
			],
			"min":[
				-0.8740999698638916,
				0.0004071126168128103,
				-0.49254465103149414
			],
			"type":"VEC3"
		},
		{
			"bufferView":1,
			"componentType":5126,
			"count":500,
			"type":"VEC3"
		},
		{
			"bufferView":2,
			"componentType":5126,
			"count":500,
			"type":"VEC2"
		},
		{
			"bufferView":3,
			"componentType":5121,
			"count":500,
			"type":"VEC4"
		},
		{
			"bufferView":4,
			"componentType":5126,
			"count":500,
			"type":"VEC4"
		},
		{
			"bufferView":5,
			"componentType":5123,
			"count":2184,
			"type":"SCALAR"
		},
		{
			"bufferView":6,
			"componentType":5126,
			"count":18,
			"type":"MAT4"
		},
		{
			"bufferView":7,
			"componentType":5126,
			"count":922,
			"max":[
				0.815476655960083,
				1.9668543338775635,
				0.30492013692855835
			],
			"min":[
				-0.8154768943786621,
				0.036144450306892395,
				-0.41208019852638245
			],
			"type":"VEC3"
		},
		{
			"bufferView":8,
			"componentType":5126,
			"count":922,
			"type":"VEC3"
		},
		{
			"bufferView":9,
			"componentType":5126,
			"count":922,
			"type":"VEC2"
		},
		{
			"bufferView":10,
			"componentType":5121,
			"count":922,
			"type":"VEC4"
		},
		{
			"bufferView":11,
			"componentType":5126,
			"count":922,
			"type":"VEC4"
		},
		{
			"bufferView":12,
			"componentType":5123,
			"count":5040,
			"type":"SCALAR"
		},
		{
			"bufferView":13,
			"componentType":5126,
			"count":69,
			"max":[
				2.875
			],
			"min":[
				0.041666666666666664
			],
			"type":"SCALAR"
		},
		{
			"bufferView":14,
			"componentType":5126,
			"count":69,
			"type":"VEC3"
		},
		{
			"bufferView":15,
			"componentType":5126,
			"count":69,
			"type":"VEC4"
		},
		{
			"bufferView":16,
			"componentType":5126,
			"count":2,
			"max":[
				2.875
			],
			"min":[
				0.041666666666666664
			],
			"type":"SCALAR"
		},
		{
			"bufferView":17,
			"componentType":5126,
			"count":2,
			"type":"VEC3"
		},
		{
			"bufferView":18,
			"componentType":5126,
			"count":2,
			"type":"VEC3"
		},
		{
			"bufferView":19,
			"componentType":5126,
			"count":69,
			"type":"VEC4"
		},
		{
			"bufferView":20,
			"componentType":5126,
			"count":2,
			"type":"VEC3"
		},
		{
			"bufferView":21,
			"componentType":5126,
			"count":2,
			"type":"VEC3"
		},
		{
			"bufferView":22,
			"componentType":5126,
			"count":2,
			"type":"VEC4"
		},
		{
			"bufferView":23,
			"componentType":5126,
			"count":2,
			"type":"VEC3"
		},
		{
			"bufferView":24,
			"componentType":5126,
			"count":2,
			"type":"VEC3"
		},
		{
			"bufferView":25,
			"componentType":5126,
			"count":69,
			"type":"VEC4"
		},
		{
			"bufferView":26,
			"componentType":5126,
			"count":2,
			"type":"VEC3"
		},
		{
			"bufferView":27,
			"componentType":5126,
			"count":2,
			"type":"VEC3"
		},
		{
			"bufferView":28,
			"componentType":5126,
			"count":69,
			"type":"VEC4"
		},
		{
			"bufferView":29,
			"componentType":5126,
			"count":2,
			"type":"VEC3"
		},
		{
			"bufferView":30,
			"componentType":5126,
			"count":2,
			"type":"VEC3"
		},
		{
			"bufferView":31,
			"componentType":5126,
			"count":69,
			"type":"VEC4"
		},
		{
			"bufferView":32,
			"componentType":5126,
			"count":2,
			"type":"VEC3"
		},
		{
			"bufferView":33,
			"componentType":5126,
			"count":2,
			"type":"VEC3"
		},
		{
			"bufferView":34,
			"componentType":5126,
			"count":69,
			"type":"VEC4"
		},
		{
			"bufferView":35,
			"componentType":5126,
			"count":2,
			"type":"VEC3"
		},
		{
			"bufferView":36,
			"componentType":5126,
			"count":2,
			"type":"VEC3"
		},
		{
			"bufferView":37,
			"componentType":5126,
			"count":69,
			"type":"VEC4"
		},
		{
			"bufferView":38,
			"componentType":5126,
			"count":2,
			"type":"VEC3"
		},
		{
			"bufferView":39,
			"componentType":5126,
			"count":2,
			"type":"VEC3"
		},
		{
			"bufferView":40,
			"componentType":5126,
			"count":2,
			"type":"VEC4"
		},
		{
			"bufferView":41,
			"componentType":5126,
			"count":2,
			"type":"VEC3"
		},
		{
			"bufferView":42,
			"componentType":5126,
			"count":2,
			"type":"VEC3"
		},
		{
			"bufferView":43,
			"componentType":5126,
			"count":69,
			"type":"VEC4"
		},
		{
			"bufferView":44,
			"componentType":5126,
			"count":2,
			"type":"VEC3"
		},
		{
			"bufferView":45,
			"componentType":5126,
			"count":2,
			"type":"VEC3"
		},
		{
			"bufferView":46,
			"componentType":5126,
			"count":69,
			"type":"VEC4"
		},
		{
			"bufferView":47,
			"componentType":5126,
			"count":2,
			"type":"VEC3"
		},
		{
			"bufferView":48,
			"componentType":5126,
			"count":2,
			"type":"VEC3"
		},
		{
			"bufferView":49,
			"componentType":5126,
			"count":69,
			"type":"VEC4"
		},
		{
			"bufferView":50,
			"componentType":5126,
			"count":2,
			"type":"VEC3"
		},
		{
			"bufferView":51,
			"componentType":5126,
			"count":2,
			"type":"VEC3"
		},
		{
			"bufferView":52,
			"componentType":5126,
			"count":69,
			"type":"VEC4"
		},
		{
			"bufferView":53,
			"componentType":5126,
			"count":2,
			"type":"VEC3"
		},
		{
			"bufferView":54,
			"componentType":5126,
			"count":2,
			"type":"VEC3"
		},
		{
			"bufferView":55,
			"componentType":5126,
			"count":69,
			"type":"VEC4"
		},
		{
			"bufferView":56,
			"componentType":5126,
			"count":2,
			"type":"VEC3"
		},
		{
			"bufferView":57,
			"componentType":5126,
			"count":69,
			"type":"VEC3"
		},
		{
			"bufferView":58,
			"componentType":5126,
			"count":2,
			"type":"VEC4"
		},
		{
			"bufferView":59,
			"componentType":5126,
			"count":2,
			"type":"VEC3"
		},
		{
			"bufferView":60,
			"componentType":5126,
			"count":69,
			"type":"VEC3"
		},
		{
			"bufferView":61,
			"componentType":5126,
			"count":69,
			"type":"VEC4"
		},
		{
			"bufferView":62,
			"componentType":5126,
			"count":2,
			"type":"VEC3"
		},
		{
			"bufferView":63,
			"componentType":5126,
			"count":69,
			"type":"VEC3"
		},
		{
			"bufferView":64,
			"componentType":5126,
			"count":2,
			"type":"VEC4"
		},
		{
			"bufferView":65,
			"componentType":5126,
			"count":2,
			"type":"VEC3"
		},
		{
			"bufferView":66,
			"componentType":5126,
			"count":69,
			"type":"VEC3"
		},
		{
			"bufferView":67,
			"componentType":5126,
			"count":2,
			"type":"VEC4"
		},
		{
			"bufferView":68,
			"componentType":5126,
			"count":2,
			"type":"VEC3"
		},
		{
			"bufferView":69,
			"componentType":5126,
			"count":69,
			"type":"VEC3"
		},
		{
			"bufferView":70,
			"componentType":5126,
			"count":69,
			"type":"VEC4"
		},
		{
			"bufferView":71,
			"componentType":5126,
			"count":2,
			"type":"VEC3"
		},
		{
			"bufferView":72,
			"componentType":5126,
			"count":2,
			"type":"VEC3"
		},
		{
			"bufferView":73,
			"componentType":5126,
			"count":2,
			"type":"VEC4"
		},
		{
			"bufferView":74,
			"componentType":5126,
			"count":2,
			"type":"VEC3"
		},
		{
			"bufferView":75,
			"componentType":5126,
			"count":2,
			"type":"VEC3"
		},
		{
			"bufferView":76,
			"componentType":5126,
			"count":2,
			"type":"VEC4"
		},
		{
			"bufferView":77,
			"componentType":5126,
			"count":2,
			"type":"VEC3"
		},
		{
			"bufferView":78,
			"componentType":5126,
			"count":2,
			"type":"VEC3"
		},
		{
			"bufferView":79,
			"componentType":5126,
			"count":69,
			"type":"VEC4"
		},
		{
			"bufferView":80,
			"componentType":5126,
			"count":2,
			"type":"VEC3"
		},
		{
			"bufferView":81,
			"componentType":5126,
			"count":2,
			"type":"VEC3"
		},
		{
			"bufferView":82,
			"componentType":5126,
			"count":69,
			"type":"VEC4"
		},
		{
			"bufferView":83,
			"componentType":5126,
			"count":2,
			"type":"VEC3"
		},
		{
			"bufferView":84,
			"componentType":5126,
			"count":2,
			"type":"VEC3"
		},
		{
			"bufferView":85,
			"componentType":5126,
			"count":69,
			"type":"VEC4"
		},
		{
			"bufferView":86,
			"componentType":5126,
			"count":2,
			"type":"VEC3"
		},
		{
			"bufferView":87,
			"componentType":5126,
			"count":2,
			"type":"VEC3"
		},
		{
			"bufferView":88,
			"componentType":5126,
			"count":69,
			"type":"VEC4"
		},
		{
			"bufferView":89,
			"componentType":5126,
			"count":2,
			"type":"VEC3"
		},
		{
			"bufferView":90,
			"componentType":5126,
			"count":2,
			"type":"VEC3"
		},
		{
			"bufferView":91,
			"componentType":5126,
			"count":69,
			"type":"VEC4"
		},
		{
			"bufferView":92,
			"componentType":5126,
			"count":2,
			"type":"VEC3"
		},
		{
			"bufferView":93,
			"componentType":5126,
			"count":2,
			"type":"VEC3"
		},
		{
			"bufferView":94,
			"componentType":5126,
			"count":2,
			"type":"VEC4"
		},
		{
			"bufferView":95,
			"componentType":5126,
			"count":2,
			"type":"VEC3"
		},
		{
			"bufferView":96,
			"componentType":5126,
			"count":2,
			"type":"VEC3"
		},
		{
			"bufferView":97,
			"componentType":5126,
			"count":69,
			"type":"VEC4"
		},
		{
			"bufferView":98,
			"componentType":5126,
			"count":2,
			"type":"VEC3"
		},
		{
			"bufferView":99,
			"componentType":5126,
			"count":2,
			"type":"VEC3"
		},
		{
			"bufferView":100,
			"componentType":5126,
			"count":69,
			"type":"VEC4"
		},
		{
			"bufferView":101,
			"componentType":5126,
			"count":2,
			"type":"VEC3"
		},
		{
			"bufferView":102,
			"componentType":5126,
			"count":2,
			"type":"VEC3"
		},
		{
			"bufferView":103,
			"componentType":5126,
			"count":69,
			"type":"VEC4"
		},
		{
			"bufferView":104,
			"componentType":5126,
			"count":2,
			"type":"VEC3"
		},
		{
			"bufferView":105,
			"componentType":5126,
			"count":2,
			"type":"VEC3"
		},
		{
			"bufferView":106,
			"componentType":5126,
			"count":69,
			"type":"VEC4"
		},
		{
			"bufferView":107,
			"componentType":5126,
			"count":2,
			"type":"VEC3"
		},
		{
			"bufferView":108,
			"componentType":5126,
			"count":2,
			"type":"VEC3"
		},
		{
			"bufferView":109,
			"componentType":5126,
			"count":69,
			"type":"VEC4"
		},
		{
			"bufferView":110,
			"componentType":5126,
			"count":2,
			"type":"VEC3"
		},
		{
			"bufferView":111,
			"componentType":5126,
			"count":2,
			"type":"VEC3"
		},
		{
			"bufferView":112,
			"componentType":5126,
			"count":2,
			"type":"VEC4"
		},
		{
			"bufferView":113,
			"componentType":5126,
			"count":2,
			"type":"VEC3"
		},
		{
			"bufferView":114,
			"componentType":5126,
			"count":69,
			"type":"VEC3"
		},
		{
			"bufferView":115,
			"componentType":5126,
			"count":69,
			"type":"VEC4"
		},
		{
			"bufferView":116,
			"componentType":5126,
			"count":2,
			"type":"VEC3"
		},
		{
			"bufferView":117,
			"componentType":5126,
			"count":2,
			"type":"VEC3"
		},
		{
			"bufferView":118,
			"componentType":5126,
			"count":2,
			"type":"VEC4"
		},
		{
			"bufferView":119,
			"componentType":5126,
			"count":2,
			"type":"VEC3"
		},
		{
			"bufferView":120,
			"componentType":5126,
			"count":69,
			"type":"VEC3"
		},
		{
			"bufferView":121,
			"componentType":5126,
			"count":69,
			"type":"VEC4"
		},
		{
			"bufferView":122,
			"componentType":5126,
			"count":2,
			"type":"VEC3"
		}
	],
	"bufferViews":[
		{
			"buffer":0,
			"byteLength":6000,
			"byteOffset":0,
			"target":34962
		},
		{
			"buffer":0,
			"byteLength":6000,
			"byteOffset":6000,
			"target":34962
		},
		{
			"buffer":0,
			"byteLength":4000,
			"byteOffset":12000,
			"target":34962
		},
		{
			"buffer":0,
			"byteLength":2000,
			"byteOffset":16000,
			"target":34962
		},
		{
			"buffer":0,
			"byteLength":8000,
			"byteOffset":18000,
			"target":34962
		},
		{
			"buffer":0,
			"byteLength":4368,
			"byteOffset":26000,
			"target":34963
		},
		{
			"buffer":0,
			"byteLength":1152,
			"byteOffset":30368
		},
		{
			"buffer":0,
			"byteLength":11064,
			"byteOffset":31520,
			"target":34962
		},
		{
			"buffer":0,
			"byteLength":11064,
			"byteOffset":42584,
			"target":34962
		},
		{
			"buffer":0,
			"byteLength":7376,
			"byteOffset":53648,
			"target":34962
		},
		{
			"buffer":0,
			"byteLength":3688,
			"byteOffset":61024,
			"target":34962
		},
		{
			"buffer":0,
			"byteLength":14752,
			"byteOffset":64712,
			"target":34962
		},
		{
			"buffer":0,
			"byteLength":10080,
			"byteOffset":79464,
			"target":34963
		},
		{
			"buffer":0,
			"byteLength":276,
			"byteOffset":89544
		},
		{
			"buffer":0,
			"byteLength":828,
			"byteOffset":89820
		},
		{
			"buffer":0,
			"byteLength":1104,
			"byteOffset":90648
		},
		{
			"buffer":0,
			"byteLength":8,
			"byteOffset":91752
		},
		{
			"buffer":0,
			"byteLength":24,
			"byteOffset":91760
		},
		{
			"buffer":0,
			"byteLength":24,
			"byteOffset":91784
		},
		{
			"buffer":0,
			"byteLength":1104,
			"byteOffset":91808
		},
		{
			"buffer":0,
			"byteLength":24,
			"byteOffset":92912
		},
		{
			"buffer":0,
			"byteLength":24,
			"byteOffset":92936
		},
		{
			"buffer":0,
			"byteLength":32,
			"byteOffset":92960
		},
		{
			"buffer":0,
			"byteLength":24,
			"byteOffset":92992
		},
		{
			"buffer":0,
			"byteLength":24,
			"byteOffset":93016
		},
		{
			"buffer":0,
			"byteLength":1104,
			"byteOffset":93040
		},
		{
			"buffer":0,
			"byteLength":24,
			"byteOffset":94144
		},
		{
			"buffer":0,
			"byteLength":24,
			"byteOffset":94168
		},
		{
			"buffer":0,
			"byteLength":1104,
			"byteOffset":94192
		},
		{
			"buffer":0,
			"byteLength":24,
			"byteOffset":95296
		},
		{
			"buffer":0,
			"byteLength":24,
			"byteOffset":95320
		},
		{
			"buffer":0,
			"byteLength":1104,
			"byteOffset":95344
		},
		{
			"buffer":0,
			"byteLength":24,
			"byteOffset":96448
		},
		{
			"buffer":0,
			"byteLength":24,
			"byteOffset":96472
		},
		{
			"buffer":0,
			"byteLength":1104,
			"byteOffset":96496
		},
		{
			"buffer":0,
			"byteLength":24,
			"byteOffset":97600
		},
		{
			"buffer":0,
			"byteLength":24,
			"byteOffset":97624
		},
		{
			"buffer":0,
			"byteLength":1104,
			"byteOffset":97648
		},
		{
			"buffer":0,
			"byteLength":24,
			"byteOffset":98752
		},
		{
			"buffer":0,
			"byteLength":24,
			"byteOffset":98776
		},
		{
			"buffer":0,
			"byteLength":32,
			"byteOffset":98800
		},
		{
			"buffer":0,
			"byteLength":24,
			"byteOffset":98832
		},
		{
			"buffer":0,
			"byteLength":24,
			"byteOffset":98856
		},
		{
			"buffer":0,
			"byteLength":1104,
			"byteOffset":98880
		},
		{
			"buffer":0,
			"byteLength":24,
			"byteOffset":99984
		},
		{
			"buffer":0,
			"byteLength":24,
			"byteOffset":100008
		},
		{
			"buffer":0,
			"byteLength":1104,
			"byteOffset":100032
		},
		{
			"buffer":0,
			"byteLength":24,
			"byteOffset":101136
		},
		{
			"buffer":0,
			"byteLength":24,
			"byteOffset":101160
		},
		{
			"buffer":0,
			"byteLength":1104,
			"byteOffset":101184
		},
		{
			"buffer":0,
			"byteLength":24,
			"byteOffset":102288
		},
		{
			"buffer":0,
			"byteLength":24,
			"byteOffset":102312
		},
		{
			"buffer":0,
			"byteLength":1104,
			"byteOffset":102336
		},
		{
			"buffer":0,
			"byteLength":24,
			"byteOffset":103440
		},
		{
			"buffer":0,
			"byteLength":24,
			"byteOffset":103464
		},
		{
			"buffer":0,
			"byteLength":1104,
			"byteOffset":103488
		},
		{
			"buffer":0,
			"byteLength":24,
			"byteOffset":104592
		},
		{
			"buffer":0,
			"byteLength":828,
			"byteOffset":104616
		},
		{
			"buffer":0,
			"byteLength":32,
			"byteOffset":105444
		},
		{
			"buffer":0,
			"byteLength":24,
			"byteOffset":105476
		},
		{
			"buffer":0,
			"byteLength":828,
			"byteOffset":105500
		},
		{
			"buffer":0,
			"byteLength":1104,
			"byteOffset":106328
		},
		{
			"buffer":0,
			"byteLength":24,
			"byteOffset":107432
		},
		{
			"buffer":0,
			"byteLength":828,
			"byteOffset":107456
		},
		{
			"buffer":0,
			"byteLength":32,
			"byteOffset":108284
		},
		{
			"buffer":0,
			"byteLength":24,
			"byteOffset":108316
		},
		{
			"buffer":0,
			"byteLength":828,
			"byteOffset":108340
		},
		{
			"buffer":0,
			"byteLength":32,
			"byteOffset":109168
		},
		{
			"buffer":0,
			"byteLength":24,
			"byteOffset":109200
		},
		{
			"buffer":0,
			"byteLength":828,
			"byteOffset":109224
		},
		{
			"buffer":0,
			"byteLength":1104,
			"byteOffset":110052
		},
		{
			"buffer":0,
			"byteLength":24,
			"byteOffset":111156
		},
		{
			"buffer":0,
			"byteLength":24,
			"byteOffset":111180
		},
		{
			"buffer":0,
			"byteLength":32,
			"byteOffset":111204
		},
		{
			"buffer":0,
			"byteLength":24,
			"byteOffset":111236
		},
		{
			"buffer":0,
			"byteLength":24,
			"byteOffset":111260
		},
		{
			"buffer":0,
			"byteLength":32,
			"byteOffset":111284
		},
		{
			"buffer":0,
			"byteLength":24,
			"byteOffset":111316
		},
		{
			"buffer":0,
			"byteLength":24,
			"byteOffset":111340
		},
		{
			"buffer":0,
			"byteLength":1104,
			"byteOffset":111364
		},
		{
			"buffer":0,
			"byteLength":24,
			"byteOffset":112468
		},
		{
			"buffer":0,
			"byteLength":24,
			"byteOffset":112492
		},
		{
			"buffer":0,
			"byteLength":1104,
			"byteOffset":112516
		},
		{
			"buffer":0,
			"byteLength":24,
			"byteOffset":113620
		},
		{
			"buffer":0,
			"byteLength":24,
			"byteOffset":113644
		},
		{
			"buffer":0,
			"byteLength":1104,
			"byteOffset":113668
		},
		{
			"buffer":0,
			"byteLength":24,
			"byteOffset":114772
		},
		{
			"buffer":0,
			"byteLength":24,
			"byteOffset":114796
		},
		{
			"buffer":0,
			"byteLength":1104,
			"byteOffset":114820
		},
		{
			"buffer":0,
			"byteLength":24,
			"byteOffset":115924
		},
		{
			"buffer":0,
			"byteLength":24,
			"byteOffset":115948
		},
		{
			"buffer":0,
			"byteLength":1104,
			"byteOffset":115972
		},
		{
			"buffer":0,
			"byteLength":24,
			"byteOffset":117076
		},
		{
			"buffer":0,
			"byteLength":24,
			"byteOffset":117100
		},
		{
			"buffer":0,
			"byteLength":32,
			"byteOffset":117124
		},
		{
			"buffer":0,
			"byteLength":24,
			"byteOffset":117156
		},
		{
			"buffer":0,
			"byteLength":24,
			"byteOffset":117180
		},
		{
			"buffer":0,
			"byteLength":1104,
			"byteOffset":117204
		},
		{
			"buffer":0,
			"byteLength":24,
			"byteOffset":118308
		},
		{
			"buffer":0,
			"byteLength":24,
			"byteOffset":118332
		},
		{
			"buffer":0,
			"byteLength":1104,
			"byteOffset":118356
		},
		{
			"buffer":0,
			"byteLength":24,
			"byteOffset":119460
		},
		{
			"buffer":0,
			"byteLength":24,
			"byteOffset":119484
		},
		{
			"buffer":0,
			"byteLength":1104,
			"byteOffset":119508
		},
		{
			"buffer":0,
			"byteLength":24,
			"byteOffset":120612
		},
		{
			"buffer":0,
			"byteLength":24,
			"byteOffset":120636
		},
		{
			"buffer":0,
			"byteLength":1104,
			"byteOffset":120660
		},
		{
			"buffer":0,
			"byteLength":24,
			"byteOffset":121764
		},
		{
			"buffer":0,
			"byteLength":24,
			"byteOffset":121788
		},
		{
			"buffer":0,
			"byteLength":1104,
			"byteOffset":121812
		},
		{
			"buffer":0,
			"byteLength":24,
			"byteOffset":122916
		},
		{
			"buffer":0,
			"byteLength":24,
			"byteOffset":122940
		},
		{
			"buffer":0,
			"byteLength":32,
			"byteOffset":122964
		},
		{
			"buffer":0,
			"byteLength":24,
			"byteOffset":122996
		},
		{
			"buffer":0,
			"byteLength":828,
			"byteOffset":123020
		},
		{
			"buffer":0,
			"byteLength":1104,
			"byteOffset":123848
		},
		{
			"buffer":0,
			"byteLength":24,
			"byteOffset":124952
		},
		{
			"buffer":0,
			"byteLength":24,
			"byteOffset":124976
		},
		{
			"buffer":0,
			"byteLength":32,
			"byteOffset":125000
		},
		{
			"buffer":0,
			"byteLength":24,
			"byteOffset":125032
		},
		{
			"buffer":0,
			"byteLength":828,
			"byteOffset":125056
		},
		{
			"buffer":0,
			"byteLength":1104,
			"byteOffset":125884
		},
		{
			"buffer":0,
			"byteLength":24,
			"byteOffset":126988
		}
	],
	"buffers":[
		{
			"byteLength":127012,
			"uri":"yetiV0.6-9ef79836ce23017d88758750c7c410e9.bin"
		}
	]
}
